<svg xmlns="http://www.w3.org/2000/svg" width="42" height="42" viewBox="0 0 42 42">
    <g>
        <circle cx="21" cy="21" r="21" fill="#fff"/>
    </g>
    <g>
        <path fill="none" d="M0 0h20v20H0z" transform="translate(11 11)"/>
        <path fill="#595758" d="M12.441 17.8l5.415 3.235a.525.525 0 0 0 .786-.56l-1.435-6.1 4.777-4.1a.52.52 0 0 0-.3-.912l-6.3-.529L12.922 3.1a.524.524 0 0 0-.964 0L9.5 8.845l-6.3.529a.518.518 0 0 0-.293.912l4.777 4.1-1.435 6.1a.525.525 0 0 0 .786.56z" transform="translate(11 11) translate(-2.164 -2.108)"/>
    </g>
</svg>
