<svg xmlns="http://www.w3.org/2000/svg" width="24" height="24" viewBox="0 0 24 24">
    <path fill="none" d="M0 0h24v24H0z"/>
    <g>
        <path fill="#595758" d="M-17.4 7.226h-1.294V6.133a2.169 2.169 0 0 0-2.167-2.167h-5.323c-.306-.424-.756-1.048-.887-1.24a3.246 3.246 0 0 0-2.971-1.5h-5.485A2.169 2.169 0 0 0-37.694 3.4v13.228a2.169 2.169 0 0 0 2.167 2.172h14.666a2.148 2.148 0 0 0 1.167-.347l.011-.009a2.1 2.1 0 0 0 .2-.159 2.7 2.7 0 0 0 .833-1.182 6.256 6.256 0 0 0 .229-.883l1.878-7.732a.929.929 0 0 0-.857-1.262zm-18.127-4h5.485a1.3 1.3 0 0 1 1.32.624c.21.309 1.218 1.7 1.218 1.7a1 1 0 0 0 .81.413h5.833a.171.171 0 0 1 .167.167v1.096h-12.6a1.658 1.658 0 0 0-1.476 1.265l-.924 3.8V3.4a.171.171 0 0 1 .167-.17z" transform="translate(545 3596) translate(-505.306 -3594.23)"/>
        <path fill="#fff" d="M-33.315-47.981l-2.635.232c-.189.017-.318.266-.2.4l1.59 1.787-1.146 2.66a.186.186 0 0 0 .271.244l2.517-1.412 1.931 1.411a.257.257 0 0 0 .1.025.27.27 0 0 0 .269-.269l-.034-2.66 2.336-1.787c.17-.132.149-.38-.043-.4l-2.54-.232-.488-2.506a.166.166 0 0 0-.172-.139.272.272 0 0 0-.227.139z" transform="translate(545 3596) translate(-499.398 -3534.878)"/>
    </g>
</svg>
