<?xml version="1.0" encoding="utf-8"?>
<!-- Generator: Adobe Illustrator 24.2.3, SVG Export Plug-In . SVG Version: 6.00 Build 0)  -->
<svg version="1.1" id="圖層_1" xmlns="http://www.w3.org/2000/svg" xmlns:xlink="http://www.w3.org/1999/xlink" x="0px" y="0px"
	 viewBox="0 0 9.75 9.72" style="enable-background:new 0 0 9.75 9.72;" xml:space="preserve">
<style type="text/css">
	.st0{fill:#36BAC3;}
	.st1{fill:#E60012;}
</style>
<path class="st0" d="M393.82,417.77h-0.11v-0.02v-3.83c0-0.85-0.69-1.54-1.54-1.54h-4.16c-0.85,0-1.54,0.69-1.54,1.54v2.07h0.92
	v-1.71c0-0.46,0.37-0.84,0.84-0.84h3.72c0.46,0,0.84,0.37,0.84,0.84v3.48v0.02h-6.42c-1.07,0-1.69,0.87-1.69,1.94v6.21
	c0,1.07,0.37,1.94,1.44,1.94h7.94c1.07,0,1.44-0.87,1.44-1.94v-6.21C395.51,418.64,394.89,417.77,393.82,417.77z M390.79,422.68
	v2.17c0,0.38-0.31,0.69-0.69,0.69v0c-0.32,0-0.69-0.31-0.69-0.69v-2.17c-0.4-0.24-0.68-0.68-0.68-1.18c0-0.76,0.61-1.37,1.37-1.37
	s1.37,0.61,1.37,1.37C391.46,422,391.19,422.44,390.79,422.68z"/>
<g>
	<g>
		<path class="st1" d="M6.44,6.57c-0.05,0-0.11-0.02-0.14-0.06l-1.3-1.3C4.97,5.19,4.95,5.18,4.92,5.18c-0.03,0-0.05,0.01-0.07,0.03
			l-1.3,1.3C3.51,6.55,3.46,6.57,3.41,6.57S3.3,6.55,3.26,6.51c-0.08-0.08-0.08-0.21,0-0.29l1.3-1.3c0.04-0.04,0.04-0.1,0-0.14
			l-1.3-1.3c-0.08-0.08-0.08-0.21,0-0.29C3.3,3.15,3.35,3.13,3.41,3.13s0.11,0.02,0.14,0.06l1.3,1.3C4.87,4.51,4.9,4.52,4.92,4.52
			c0.03,0,0.05-0.01,0.07-0.03l1.3-1.3c0.04-0.04,0.09-0.06,0.14-0.06s0.11,0.02,0.14,0.06c0.08,0.08,0.08,0.21,0,0.29l-1.3,1.3
			c-0.04,0.04-0.04,0.1,0,0.14l1.3,1.3c0.08,0.08,0.08,0.21,0,0.29C6.54,6.55,6.49,6.57,6.44,6.57z"/>
	</g>
	<path class="st1" d="M9.66,4.63c0-0.02,0-0.03,0-0.05c0-0.07-0.01-0.14-0.02-0.21c0,0,0-0.01,0-0.01c0-0.05-0.01-0.1-0.02-0.14
		c0-0.02-0.01-0.05-0.01-0.07c0-0.01,0-0.02,0-0.03C9.6,4.04,9.59,3.97,9.57,3.9c0,0,0-0.01,0-0.01c-0.05-0.25-0.12-0.5-0.22-0.74
		C9.26,2.91,9.16,2.69,9.03,2.48C9.03,2.47,9.02,2.46,9.02,2.45c-0.41-0.7-1-1.29-1.7-1.7C7.31,0.75,7.3,0.74,7.29,0.73
		C7.05,0.6,6.81,0.48,6.55,0.39c0,0,0,0,0,0c-0.07-0.02-0.13-0.05-0.2-0.07c-0.01,0-0.02-0.01-0.03-0.01
		c-0.07-0.02-0.13-0.04-0.2-0.06c-0.02,0-0.04-0.01-0.06-0.01c-0.05-0.01-0.1-0.02-0.15-0.03C5.9,0.2,5.88,0.2,5.86,0.19
		C5.8,0.18,5.73,0.17,5.67,0.16c-0.02,0-0.05-0.01-0.07-0.01C5.55,0.14,5.5,0.14,5.44,0.13c-0.02,0-0.03,0-0.05-0.01
		c-0.07-0.01-0.14-0.01-0.2-0.02c-0.02,0-0.04,0-0.05,0C5.06,0.1,4.99,0.1,4.92,0.1c-2.62,0-4.75,2.13-4.75,4.75
		c0,0.25,0.02,0.49,0.05,0.72C0.34,6.28,0.6,6.93,0.99,7.5c0.04,0.06,0.09,0.13,0.13,0.19c0.27,0.37,0.6,0.69,0.96,0.96
		c0.49,0.36,1.05,0.64,1.65,0.79C3.89,9.48,4.04,9.52,4.2,9.54C4.43,9.58,4.68,9.6,4.92,9.6c0.07,0,0.14,0,0.22-0.01
		c0.02,0,0.03,0,0.05,0c0.07,0,0.14-0.01,0.21-0.02c0,0,0.01,0,0.01,0c0.05,0,0.1-0.01,0.14-0.02c0.02,0,0.05-0.01,0.07-0.01
		c0.01,0,0.02,0,0.03,0C5.73,9.53,5.8,9.51,5.87,9.5c0,0,0.01,0,0.01,0c0.25-0.05,0.5-0.12,0.74-0.22c0.23-0.09,0.45-0.19,0.66-0.32
		C7.3,8.96,7.31,8.95,7.32,8.94c0.7-0.41,1.29-1,1.7-1.7c0.01-0.01,0.01-0.02,0.02-0.02c0.14-0.24,0.25-0.48,0.34-0.74c0,0,0,0,0,0
		c0.02-0.07,0.05-0.13,0.07-0.2c0-0.01,0.01-0.02,0.01-0.03c0.02-0.07,0.04-0.13,0.06-0.2c0-0.02,0.01-0.04,0.01-0.06
		c0.01-0.05,0.02-0.1,0.03-0.15c0-0.02,0.01-0.04,0.01-0.06C9.59,5.72,9.6,5.66,9.61,5.6c0-0.02,0.01-0.05,0.01-0.07
		c0.01-0.05,0.01-0.11,0.02-0.16c0-0.02,0-0.03,0.01-0.05c0.01-0.07,0.01-0.14,0.02-0.2c0-0.02,0-0.04,0-0.05
		c0-0.07,0.01-0.14,0.01-0.21C9.67,4.78,9.67,4.7,9.66,4.63z M9.26,5.05c0,0.02,0,0.03,0,0.05c0,0.06-0.01,0.12-0.01,0.19
		c0,0.01,0,0.03,0,0.04c-0.01,0.05-0.01,0.1-0.02,0.15c0,0.02-0.01,0.04-0.01,0.06C9.2,5.59,9.19,5.65,9.18,5.71
		c0,0.02-0.01,0.03-0.01,0.05C9.15,5.81,9.14,5.85,9.13,5.9c0,0.02-0.01,0.03-0.01,0.05C9.1,6.01,9.09,6.07,9.07,6.13
		c0,0.01,0,0.01-0.01,0.02C8.59,7.64,7.34,8.78,5.8,9.1c0,0,0,0-0.01,0c-0.07,0.01-0.13,0.03-0.2,0.04c-0.01,0-0.01,0-0.02,0
		C5.5,9.15,5.44,9.16,5.37,9.17c0,0,0,0-0.01,0C5.3,9.17,5.23,9.18,5.17,9.18c-0.02,0-0.03,0-0.05,0c-0.07,0-0.13,0-0.2,0.01
		c0,0,0,0,0,0c-1.5,0-2.82-0.76-3.6-1.92C1.28,7.22,1.25,7.16,1.21,7.1c-0.07-0.12-0.14-0.24-0.2-0.37S0.89,6.47,0.84,6.34
		C0.8,6.21,0.75,6.07,0.72,5.93C0.63,5.59,0.58,5.22,0.58,4.85c0-0.07,0-0.15,0.01-0.22c0.09-1.77,1.25-3.27,2.84-3.85
		C3.7,0.67,3.97,0.6,4.26,0.56C4.4,0.54,4.55,0.52,4.7,0.51c0.07,0,0.15-0.01,0.22-0.01c0.07,0,0.13,0,0.2,0c0.02,0,0.03,0,0.05,0
		c0.06,0,0.12,0.01,0.19,0.01c0.01,0,0.03,0,0.04,0c0.05,0.01,0.1,0.01,0.15,0.02c0.02,0,0.04,0.01,0.06,0.01
		c0.06,0.01,0.12,0.02,0.17,0.03c0.02,0,0.03,0.01,0.05,0.01c0.05,0.01,0.1,0.02,0.14,0.03c0.02,0,0.03,0.01,0.05,0.01
		C6.08,0.67,6.14,0.68,6.2,0.7c0.01,0,0.01,0,0.02,0.01c1.49,0.47,2.63,1.72,2.95,3.26c0,0,0,0,0,0.01c0.01,0.07,0.03,0.13,0.04,0.2
		c0,0.01,0,0.01,0,0.02c0.01,0.07,0.02,0.13,0.03,0.2c0,0,0,0,0,0.01c0.01,0.06,0.01,0.13,0.01,0.2c0,0.02,0,0.03,0,0.05
		c0,0.07,0,0.13,0,0.2c0,0,0,0,0,0C9.26,4.91,9.26,4.98,9.26,5.05z"/>
</g>
</svg>
