<svg xmlns="http://www.w3.org/2000/svg" width="60" height="60" viewBox="0 0 60 60">
    <g>
        <g fill="none" stroke-linecap="round" stroke-linejoin="round">
            <path d="M46.37 11.007H29.287S26.374 6.988 25.766 6.1c-1.123-1.641-2.621-3.105-6.282-3.105H3.417A3.427 3.427 0 0 0 0 6.411V45.16a3.427 3.427 0 0 0 3.417 3.417H46.37a3.427 3.427 0 0 0 3.417-3.417V14.424a3.427 3.427 0 0 0-3.417-3.417z" transform="translate(-1454.5 -256.209) translate(1454.5 260.214)"/>
            <path fill="#b4b4b4" d="M3.417 4.994C2.636 4.994 2 5.63 2 6.411V45.16c0 .768.649 1.417 1.417 1.417H46.37c.781 0 1.417-.636 1.417-1.417V14.424c0-.781-.636-1.417-1.417-1.417H29.287c-.641 0-1.243-.307-1.62-.826-.119-.165-2.936-4.052-3.552-4.952-.836-1.223-1.762-2.235-4.631-2.235H3.417m0-2h16.067c3.661 0 5.159 1.464 6.282 3.105.608.889 3.521 4.908 3.521 4.908H46.37c1.88 0 3.417 1.538 3.417 3.417V45.16c0 1.879-1.537 3.417-3.417 3.417H3.417C1.538 48.577 0 47.039 0 45.16V6.411c0-1.88 1.538-3.417 3.417-3.417z" transform="translate(-1454.5 -256.209) translate(1454.5 260.214)"/>
        </g>
        <path fill="#b4b4b4" d="M57.362 16.53l-46.556.012a4.854 4.854 0 0 0-4.317 3.694L.5 44.885c-.493 2.031.642 3.692 2.522 3.692l46.556-.011a4.855 4.855 0 0 0 4.322-3.694l5.988-24.649c.49-2.032-.645-3.693-2.526-3.693zM38.636 33.4a.5.5 0 0 1-.4.2h-3.973l-2.776 10.089a.5.5 0 0 1-.482.368h-4.634a.5.5 0 0 1-.482-.633l2.7-9.823h-3.7a.5.5 0 0 1-.381-.824l9.851-11.551a.5.5 0 0 1 .859.18l3.49 11.551a.5.5 0 0 1-.072.443z" transform="translate(-1454.5 -256.209) translate(1454.5 260.214)"/>
    </g>
    <path fill="none" d="M0 0H60V60H0z"/>
</svg>
