<svg xmlns="http://www.w3.org/2000/svg" id="no_deta" width="42" height="42" viewBox="0 0 42 42">
    <defs>
        <style>
            .cls-2{fill:#b4b4b4}
        </style>
    </defs>
    <g id="Group_4386" transform="translate(-916 -189)">
        <g id="Group_4385" transform="translate(917 190)">
            <path id="Path_1217" d="M38.08 40L40 38.036l-6.431-6.591h-1.018l-.361-.356a8.641 8.641 0 0 0 2.023-5.575 8.38 8.38 0 1 0-8.377 8.568 8.229 8.229 0 0 0 5.451-2.07l.349.369v1.042zm-12.244-8.555a5.933 5.933 0 1 1 5.8-5.931 5.859 5.859 0 0 1-5.8 5.931z" class="cls-2"/>
            <path id="Path_1218" d="M18.526 32.99a10.57 10.57 0 0 1-2.9-5.876H6.28v-3.389h9.375a10.579 10.579 0 0 1 1.172-3.389H6.28v-3.39H19.8a10.1 10.1 0 0 1 11.2-.587v-6.191L21.578 0H3.137a3.269 3.269 0 0 0-3.12 3.389L0 30.5a3.27 3.27 0 0 0 3.124 3.389h16.42a10.552 10.552 0 0 1-1.018-.899zm1.483-30.449l8.633 9.322h-8.633z" class="cls-2"/>
            <path id="Path_1219" d="M27.974 22.074l-2.138 2.187-2.136-2.187a3.977 3.977 0 0 0-1.133 1.16L24.7 25.42l-2.134 2.18a3.965 3.965 0 0 0 1.134 1.164l2.136-2.184 2.136 2.184a3.965 3.965 0 0 0 1.134-1.164l-2.137-2.18 2.138-2.186a3.977 3.977 0 0 0-1.133-1.16z" class="cls-2"/>
        </g>
    </g>
</svg>
