<svg width="24" height="24" viewBox="0 0 24 24" fill="none" xmlns="http://www.w3.org/2000/svg">
<path d="M19 13H5C3.94011 13.0032 2.92453 13.4256 2.17507 14.1751C1.42561 14.9245 1.00317 15.9401 1 17V19C1.00317 20.0599 1.42561 21.0755 2.17507 21.8249C2.92453 22.5744 3.94011 22.9968 5 23H19C20.0599 22.9968 21.0755 22.5744 21.8249 21.8249C22.5744 21.0755 22.9968 20.0599 23 19V17C22.9968 15.9401 22.5744 14.9245 21.8249 14.1751C21.0755 13.4256 20.0599 13.0032 19 13ZM8.853 20.5H4.519V18.5H8.853V20.5ZM8.853 17.5H4.519V15.5H8.853V17.5ZM12.527 19.8C12.171 19.8 11.823 19.6944 11.527 19.4966C11.231 19.2989 11.0003 19.0177 10.864 18.6888C10.7278 18.3599 10.6921 17.998 10.7616 17.6488C10.831 17.2997 11.0025 16.9789 11.2542 16.7272C11.5059 16.4755 11.8267 16.304 12.1758 16.2346C12.525 16.1651 12.8869 16.2008 13.2158 16.337C13.5447 16.4733 13.8259 16.704 14.0236 17C14.2214 17.296 14.327 17.644 14.327 18C14.327 18.2364 14.2804 18.4704 14.19 18.6888C14.0995 18.9072 13.9669 19.1056 13.7998 19.2728C13.6326 19.4399 13.4342 19.5725 13.2158 19.663C12.9974 19.7534 12.7634 19.8 12.527 19.8ZM18 19.8C17.644 19.8 17.296 19.6944 17 19.4966C16.704 19.2989 16.4733 19.0177 16.337 18.6888C16.2008 18.3599 16.1651 17.998 16.2346 17.6488C16.304 17.2997 16.4755 16.9789 16.7272 16.7272C16.9789 16.4755 17.2997 16.304 17.6488 16.2346C17.998 16.1651 18.3599 16.2008 18.6888 16.337C19.0177 16.4733 19.2989 16.704 19.4966 17C19.6944 17.296 19.8 17.644 19.8 18C19.8 18.4774 19.6104 18.9352 19.2728 19.2728C18.9352 19.6104 18.4774 19.8 18 19.8Z" fill="#5250DA"/>
<path d="M12 1C13.3845 1 14.7378 1.41054 15.889 2.17971C17.0401 2.94888 17.9373 4.04213 18.4672 5.32122C18.997 6.6003 19.1356 8.00776 18.8655 9.36563C18.5954 10.7235 17.9287 11.9708 16.9497 12.9497C15.9708 13.9287 14.7235 14.5954 13.3656 14.8655C12.0078 15.1356 10.6003 14.997 9.32122 14.4672C8.04213 13.9373 6.94888 13.0401 6.17971 11.889C5.41054 10.7378 5 9.38447 5 8C5 6.14348 5.7375 4.36301 7.05025 3.05025C8.36301 1.7375 10.1435 1 12 1V1Z" fill="#FF9E18"/>
<path d="M11 12C11 11.8022 11.0586 11.6089 11.1685 11.4445C11.2784 11.28 11.4346 11.1519 11.6173 11.0762C11.8 11.0005 12.0011 10.9806 12.1951 11.0192C12.3891 11.0578 12.5673 11.153 12.7071 11.2928C12.847 11.4327 12.9422 11.611 12.9808 11.8049C13.0194 11.9989 12.9996 12.2 12.9239 12.3827C12.8482 12.5654 12.72 12.7215 12.5556 12.8314C12.3911 12.9413 12.1978 13 12 13C11.7348 13 11.4804 12.8947 11.2929 12.7072C11.1054 12.5196 11 12.2652 11 12ZM11 9V4H13V9H11Z" fill="white"/>
</svg>
