<svg xmlns="http://www.w3.org/2000/svg" id="machine_status" width="24" height="24" viewBox="0 0 24 24">
    <defs>
        <style>
            .cls-1{fill:none}
        </style>
    </defs>
    <path id="Path_128" d="M0 0h24v24H0z" class="cls-1"/>
    <path id="Path_534" fill="#b4b4b4" d="M19 6.5H5a4.012 4.012 0 0 0-4 4v2a4.012 4.012 0 0 0 4 4h14a4.012 4.012 0 0 0 4-4v-2a4.012 4.012 0 0 0-4-4zM8.853 14H4.519v-2h4.334zm0-3H4.519V9h4.334zm3.674 2.3a1.8 1.8 0 1 1 1.8-1.8 1.8 1.8 0 0 1-1.8 1.8zm5.473 0a1.8 1.8 0 1 1 1.8-1.8 1.8 1.8 0 0 1-1.8 1.8z" transform="translate(0 6.5)"/>
    <path id="Path_653" fill="#dc3545" d="M7 0a7 7 0 1 1-7 7 7 7 0 0 1 7-7z" transform="translate(5 1)"/>
    <g id="Component_134_9" transform="translate(5 1)">
        <path id="Path_598" d="M7.5 11.175h13v13h-13z" class="cls-1" transform="translate(-7.5 -11.175)"/>
        <path id="Path_599" fill="#fff" d="M14.5 13.175a5 5 0 1 0 5 5 5 5 0 0 0-5-5zm-4 5a4 4 0 0 1 4-4 3.951 3.951 0 0 1 2.45.845l-5.605 5.605a3.951 3.951 0 0 1-.845-2.45zm4 4a3.951 3.951 0 0 1-2.45-.845l5.6-5.605a3.951 3.951 0 0 1 .845 2.45 4 4 0 0 1-3.995 4z" transform="translate(-7.5 -11.175)"/>
    </g>
</svg>
