<svg xmlns="http://www.w3.org/2000/svg" id="Component_105_48" width="24" height="24" viewBox="0 0 24 24">
    <defs>
        <style>
            .cls-1{fill:#b4b4b4}
        </style>
    </defs>
    <g id="icons_application_24" transform="translate(.33 .5)">
        <path id="Path_290" d="M20.33 2.5H3.67a2 2 0 0 0-2 2v13.4a2 2 0 0 0 2 2h16.66a2 2 0 0 0 2-2V4.5a2 2 0 0 0-2-2zM9.56 4a1.28 1.28 0 1 1-1.28 1.23A1.28 1.28 0 0 1 9.56 4zM5.41 4a1.28 1.28 0 1 1-1.28 1.28A1.28 1.28 0 0 1 5.41 4zm14.92 14H3.67V8.06h16.66z" class="cls-1"/>
        <path id="Rectangle_236" d="M0 0H12.29V2H0z" class="cls-1" transform="translate(5.71 10.5)"/>
        <path id="Rectangle_237" d="M0 0H12.29V2H0z" class="cls-1" transform="translate(5.71 13.5)"/>
    </g>
    <path id="Path_292" fill="none" d="M0 0h24v24H0z"/>
</svg>
