<?xml version="1.0" encoding="utf-8"?>
<!-- Generator: Adobe Illustrator 24.2.3, SVG Export Plug-In . SVG Version: 6.00 Build 0)  -->
<svg version="1.1" id="圖層_1" xmlns="http://www.w3.org/2000/svg" xmlns:xlink="http://www.w3.org/1999/xlink" x="0px" y="0px"
	 viewBox="0 0 25.51 25.44" style="enable-background:new 0 0 25.51 25.44;" xml:space="preserve">
<style type="text/css">
	.st0{fill:#FFFFFF;}
	.st1{fill:#80BC00;}
</style>
<g>
	<circle class="st0" cx="12.89" cy="12.95" r="11.32"/>
	<g>
		<path class="st1" d="M8.44,10.08v-0.5c0-0.65,0.09-1.25,0.27-1.81C8.9,7.22,9.16,6.75,9.52,6.35c0.36-0.39,0.8-0.7,1.34-0.92
			c0.54-0.22,1.17-0.34,1.89-0.34c1.54,0,2.69,0.38,3.45,1.14c0.76,0.76,1.14,1.78,1.14,3.06c0,0.61-0.1,1.18-0.29,1.7
			c-0.2,0.52-0.55,1.09-1.08,1.7l-0.87,0.98c-0.38,0.42-0.65,0.81-0.82,1.15c-0.17,0.35-0.25,0.8-0.25,1.35v0.33h-2.7v-0.85
			c0-0.73,0.1-1.34,0.3-1.84c0.2-0.5,0.55-1.03,1.05-1.58l0.83-0.94c0.3-0.33,0.52-0.69,0.64-1.08c0.12-0.38,0.19-0.79,0.19-1.23
			c0-0.55-0.12-1-0.37-1.34c-0.25-0.34-0.62-0.51-1.11-0.51c-0.55,0-0.95,0.22-1.19,0.66c-0.24,0.44-0.36,1.02-0.36,1.73v0.54H8.44z
			 M14.19,17.93v2.87h-3v-2.87H14.19z"/>
	</g>
</g>
</svg>
