<?xml version="1.0" encoding="utf-8"?>
<!-- Generator: Adobe Illustrator 24.2.3, SVG Export Plug-In . SVG Version: 6.00 Build 0)  -->
<svg version="1.1" id="圖層_1" xmlns="http://www.w3.org/2000/svg" xmlns:xlink="http://www.w3.org/1999/xlink" x="0px" y="0px"
	 viewBox="0 0 283.46 283.46" style="enable-background:new 0 0 283.46 283.46;" xml:space="preserve">
<style type="text/css">
	.st0{fill:#80BC00;}
	.st1{fill:#FFFFFF;}
</style>
<circle class="st0" cx="141.58" cy="141.88" r="92.53"/>
<g>
	<path class="st1" d="M141.52,141.09h0.11c15.28,0,27.71-12.43,27.71-27.71c0-15.31-12.46-27.76-27.76-27.76
		c-15.31,0-27.76,12.45-27.76,27.76C113.81,128.66,126.25,141.09,141.52,141.09z"/>
	<path class="st1" d="M155.55,149.59H127.6c-18.49,0-33.54,15.04-33.54,33.54c0,2.52,2.05,4.56,4.56,4.56h85.89
		c2.52,0,4.56-2.05,4.56-4.56C189.09,164.63,174.05,149.59,155.55,149.59z"/>
</g>
</svg>
