<?xml version="1.0" encoding="utf-8"?>
<!-- Generator: Adobe Illustrator 24.2.3, SVG Export Plug-In . SVG Version: 6.00 Build 0)  -->
<svg version="1.1" id="圖層_1" xmlns="http://www.w3.org/2000/svg" xmlns:xlink="http://www.w3.org/1999/xlink" x="0px" y="0px"
	 viewBox="0 0 23.05 23.15" style="enable-background:new 0 0 23.05 23.15;" xml:space="preserve">
<style type="text/css">
	.st0{fill:#FFFFFF;}
	.st1{fill:#80BC00;}
</style>
<g>
	<circle class="st0" cx="11.51" cy="11.57" r="11.32"/>
	<g>
		<path class="st1" d="M18.33,4.44c-1.9-1.9-4.43-2.95-7.12-2.95c-0.35,0-0.63,0.28-0.63,0.63s0.28,0.63,0.63,0.63
			c2.35,0,4.56,0.92,6.23,2.58c3.29,3.29,3.46,8.51,0.43,11.99l-1.27-1.27c1.06-1.29,1.66-2.92,1.66-4.49
			c0-1.88-0.73-3.65-2.06-4.98c-1.33-1.33-3.1-2.06-4.98-2.06c-0.35,0-0.63,0.28-0.63,0.63c0,0.35,0.28,0.63,0.63,0.63
			c1.55,0,3,0.6,4.09,1.69c2.11,2.11,2.21,5.57,0.25,7.89l-1.34-1.35l0.1,0.08c0.6-0.74,0.92-1.61,0.92-2.53
			c0-1.07-0.42-2.08-1.18-2.84c-0.76-0.76-1.77-1.18-2.85-1.18c-0.35,0-0.63,0.28-0.63,0.63s0.28,0.63,0.63,0.63
			c0.74,0,1.44,0.29,1.96,0.81c0.52,0.52,0.81,1.22,0.81,1.96c0,0.59-0.2,1.16-0.56,1.65l-1.43-1.44c0.01-0.06,0.04-0.12,0.04-0.19
			c0-0.48-0.39-0.86-0.86-0.86c-0.48,0-0.86,0.39-0.86,0.86c0,0.48,0.39,0.86,0.86,0.86c0.11,0,0.22-0.02,0.32-0.06l6.15,6.12
			c0.02,0.02,0.04,0.01,0.05,0.02c0.11,0.08,0.23,0.13,0.37,0.13c0.17,0,0.32-0.06,0.44-0.18C22.42,14.55,22.25,8.37,18.33,4.44z"/>
		<circle class="st1" cx="11.21" cy="11.67" r="1.64"/>
	</g>
</g>
</svg>
