<svg xmlns="http://www.w3.org/2000/svg" width="41.097" height="41" viewBox="0 0 41.097 41">
  <defs>
    <style>
      .cls-1 {
        fill: #595758;
        stroke: rgba(0,0,0,0);
        stroke-miterlimit: 10;
      }
    </style>
  </defs>
  <g id="menu_log" transform="translate(0.5 0.5)">
    <path id="Subtraction_21" data-name="Subtraction 21" class="cls-1" d="M3936.1,5023h-24a6.007,6.007,0,0,1-6-6v-1.157a5.316,5.316,0,0,1-2.926-2.094A6.513,6.513,0,0,1,3902,5010v-4a6.512,6.512,0,0,1,1.171-3.749,5.318,5.318,0,0,1,2.926-2.093V4989a6.007,6.007,0,0,1,6-6h18.749l11.252,11.252V5017A6.007,6.007,0,0,1,3936.1,5023Zm-27-7v1a3,3,0,0,0,3,3h24a3,3,0,0,0,3-3v-19.258h-6a6.1,6.1,0,0,1-6.088-6.089V4986H3912.1a3,3,0,0,0-3,3v11h17.6c2.925,0,5.3,2.691,5.3,6v4c0,3.309-2.38,6-5.3,6Zm15.092-12.387a3.611,3.611,0,0,0-1.919.508,3.314,3.314,0,0,0-1.274,1.447,5.115,5.115,0,0,0-.445,2.2l.006.739a4.168,4.168,0,0,0,1.072,2.853,3.586,3.586,0,0,0,2.679,1.026,6.023,6.023,0,0,0,2-.323,3.3,3.3,0,0,0,1.388-.85v-3.5h-3.486v1.411h1.431v1.325a1.732,1.732,0,0,1-1.2.358,1.553,1.553,0,0,1-1.375-.642,3.456,3.456,0,0,1-.435-1.918v-.516a3.522,3.522,0,0,1,.426-1.875,1.351,1.351,0,0,1,1.2-.658,1.491,1.491,0,0,1,1,.305,1.625,1.625,0,0,1,.456,1.02h1.98a3.094,3.094,0,0,0-1.029-2.176A3.787,3.787,0,0,0,3924.189,5003.614Zm-8.267.006a3.708,3.708,0,0,0-1.954.522,3.439,3.439,0,0,0-1.32,1.479,5.1,5.1,0,0,0-.459,2.212v.48a4.918,4.918,0,0,0,.5,2.139,3.437,3.437,0,0,0,1.315,1.432,3.728,3.728,0,0,0,1.935.5,3.663,3.663,0,0,0,1.941-.52,3.425,3.425,0,0,0,1.315-1.479,5.047,5.047,0,0,0,.464-2.209v-.393a4.971,4.971,0,0,0-.477-2.182,3.5,3.5,0,0,0-1.322-1.469A3.673,3.673,0,0,0,3915.922,5003.62Zm-9.621.117v8.532h5.637v-1.582h-3.581v-6.95Zm23.708-17.33v5.246a3.091,3.091,0,0,0,3.087,3.088h5.247Zm-14.074,24.373a1.366,1.366,0,0,1-1.237-.674,3.7,3.7,0,0,1-.416-1.926l.005-.627c.059-1.54.609-2.321,1.635-2.321a1.374,1.374,0,0,1,1.217.659,3.615,3.615,0,0,1,.425,1.931v.394a3.614,3.614,0,0,1-.427,1.9A1.352,1.352,0,0,1,3915.934,5010.78Z" transform="translate(-3902 -4983)"/>
  </g>
</svg>
