<svg xmlns="http://www.w3.org/2000/svg" width="300" height="231.326" viewBox="0 0 300 231.326">
    <defs>
        <style>
            .cls-5{fill:#80bc00}.cls-2,.cls-3{fill:#fff;stroke-linecap:round;stroke-linejoin:round}.cls-3{stroke:#b4b4b4;stroke-width:3px}.cls-6{fill:#fff57f;mix-blend-mode:multiply;isolation:isolate}.cls-7,.cls-8{stroke:none}.cls-8{fill:#b4b4b4}.cls-9{fill:none}
        </style>
    </defs>
    <g id="Group_2806">
        <g id="Group_2720" transform="translate(0 -34.337)">
            <path id="Path_1116" fill="#80bc00" d="M175.759 122.657l.009-.008c-11.645-9.285-20.906-24.966-25.021-32.676-.724-1.532-1.482-3.045-2.3-4.523l-.018-.04A79.185 79.185 0 0 0 .269 116.532c-2.469 27.113 12.36 47.168 34.313 61.607 18.428 12.122 20.657 40.535 30.246 56.589C73.512 249.266 88.44 263.9 122 265.555c43.679 2.152 82.076-28.113 86.047-71.664a79.129 79.129 0 0 0-32.288-71.234z" opacity="0.5"/>
        </g>
        <g id="Group_2725" transform="translate(14.923 -36.585)">
            <g id="Group_2724" transform="translate(77.068 96.018)">
                <g id="Group_2721" transform="translate(0 55.673)">
                    <g id="Path_1117" class="cls-2">
                        <path d="M128.635 227.863c-6.882 0-13.555-.511-19.834-1.52-6.04-.97-11.456-2.354-16.097-4.116-4.562-1.732-8.123-3.729-10.582-5.936-2.358-2.117-3.554-4.304-3.554-6.503v-27.74h100.134v27.74c0 2.199-1.196 4.386-3.554 6.503-2.46 2.207-6.02 4.204-10.582 5.936-4.64 1.762-10.056 3.147-16.096 4.116-6.28 1.009-12.952 1.52-19.835 1.52z" class="cls-7" transform="translate(-77.068 -162.376)"/>
                        <path d="M80.068 183.548v26.24c0 3.78 4.923 7.907 13.168 11.037 4.546 1.725 9.863 3.084 15.803 4.037 6.2.996 12.794 1.5 19.596 1.5 6.803 0 13.396-.504 19.597-1.5 5.94-.953 11.256-2.312 15.802-4.037 8.245-3.13 13.168-7.256 13.168-11.037v-26.24H80.068m-3-3h103.134v29.24c0 10.81-23.087 19.575-51.567 19.575s-51.567-8.764-51.567-19.575v-29.24z" class="cls-8" transform="translate(-77.068 -162.376)"/>
                    </g>
                    <g id="Ellipse_193" class="cls-3">
                        <ellipse cx="51.567" cy="19.575" class="cls-7" rx="51.567" ry="19.575"/>
                        <ellipse cx="51.567" cy="19.575" class="cls-9" rx="50.067" ry="18.075"/>
                    </g>
                </g>
                <g id="Group_2722" transform="translate(0 27.836)">
                    <g id="Path_1118" class="cls-2">
                        <path d="M128.635 195.999c-6.882 0-13.555-.511-19.834-1.52-6.04-.97-11.456-2.354-16.097-4.116-4.562-1.732-8.123-3.73-10.582-5.936-2.358-2.117-3.554-4.305-3.554-6.504v-27.739h100.134v27.74c0 2.198-1.196 4.386-3.554 6.503-2.46 2.207-6.02 4.204-10.582 5.936-4.64 1.762-10.056 3.147-16.096 4.116-6.28 1.009-12.952 1.52-19.835 1.52z" class="cls-7" transform="translate(-77.068 -130.512)"/>
                        <path d="M80.068 151.684v26.24c0 3.78 4.923 7.907 13.168 11.037 4.546 1.725 9.863 3.084 15.803 4.037 6.2.996 12.794 1.5 19.596 1.5 6.803 0 13.396-.504 19.597-1.5 5.94-.953 11.256-2.312 15.802-4.037 8.245-3.13 13.168-7.257 13.168-11.038v-26.239H80.068m-3-3h103.134v29.24c0 10.81-23.087 19.575-51.567 19.575s-51.567-8.764-51.567-19.576v-29.239z" class="cls-8" transform="translate(-77.068 -130.512)"/>
                    </g>
                    <g id="Ellipse_194" fill="#80bc00" stroke="#b4b4b4" stroke-linecap="round" stroke-linejoin="round" stroke-width="3px">
                        <ellipse cx="51.567" cy="19.575" class="cls-7" rx="51.567" ry="19.575"/>
                        <ellipse cx="51.567" cy="19.575" class="cls-9" rx="50.067" ry="18.075"/>
                    </g>
                </g>
                <g id="Group_2723">
                    <g id="Path_1119" class="cls-2">
                        <path d="M128.635 164.135c-6.882 0-13.555-.511-19.834-1.52-6.04-.97-11.456-2.354-16.097-4.116-4.562-1.732-8.123-3.73-10.582-5.936-2.358-2.117-3.554-4.305-3.554-6.504V118.32h100.134v27.74c0 2.198-1.196 4.386-3.554 6.503-2.46 2.207-6.02 4.204-10.582 5.936-4.64 1.762-10.056 3.147-16.096 4.116-6.28 1.009-12.952 1.52-19.835 1.52z" class="cls-7" transform="translate(-77.068 -98.648)"/>
                        <path d="M80.068 119.82v26.24c0 3.78 4.923 7.907 13.168 11.037 4.546 1.725 9.863 3.084 15.803 4.037 6.2.996 12.794 1.5 19.596 1.5 6.803 0 13.396-.504 19.597-1.5 5.94-.953 11.256-2.312 15.802-4.037 8.245-3.13 13.168-7.257 13.168-11.038V119.82H80.068m-3-3h103.134v29.24c0 10.81-23.087 19.575-51.567 19.575s-51.567-8.764-51.567-19.576V116.82z" class="cls-8" transform="translate(-77.068 -98.648)"/>
                    </g>
                    <g id="Ellipse_195" class="cls-3">
                        <ellipse cx="51.567" cy="19.575" class="cls-7" rx="51.567" ry="19.575"/>
                        <ellipse cx="51.567" cy="19.575" class="cls-9" rx="50.067" ry="18.075"/>
                    </g>
                </g>
            </g>
            <circle id="Ellipse_196" cx="3.88" cy="3.88" r="3.88" class="cls-5" transform="translate(157.755 139.55)"/>
            <circle id="Ellipse_197" cx="3.88" cy="3.88" r="3.88" class="cls-5" transform="translate(157.755 165.944)"/>
            <circle id="Ellipse_198" cx="3.88" cy="3.88" r="3.88" class="cls-5" transform="translate(157.755 193.661)"/>
        </g>
        <circle id="Ellipse_199" cx="17.476" cy="17.476" r="17.476" class="cls-5" transform="translate(2.181 154.328)"/>
        <circle id="Ellipse_200" cx="17.313" cy="17.313" r="17.313" class="cls-6" transform="translate(111.476 5.504)"/>
        <circle id="Ellipse_201" cx="76.949" cy="76.949" r="76.949" class="cls-6" transform="translate(146.103)"/>
    </g>
</svg>
