<svg xmlns="http://www.w3.org/2000/svg" viewBox="0 0 300 227" style="enable-background:new 0 0 300 227" xml:space="preserve"><style>.st1{fill:#fff}</style><g id="圖層_1"><path class="st1" d="M146.4 120.9c6.3 0 12.2-1.4 17.5-4 1.2 4.2 5 7.2 9.6 7.2 5.5 0 10-4.5 10-10 0-3.8-2.1-7.1-5.3-8.8 5.3-6.8 8.5-15.4 8.5-24.7 0-22.3-18-40.3-40.3-40.3-22.3 0-40.3 18-40.3 40.3s18 40.3 40.3 40.3zm0-76.3c4.5 0 8.1 3.6 8.1 8.1s-3.6 8.1-8.1 8.1-8.1-3.6-8.1-8.1 3.6-8.1 8.1-8.1zm0 19.7c8.9 0 16.1 7.2 16.1 16.1 0 8.9-7.2 16.1-16.1 16.1-8.9 0-16.1-7.2-16.1-16.1-.1-8.8 7.2-16.1 16.1-16.1zM133.5 141.6c.6-.4 1.2-.7 1.9-1-.7.3-1.3.6-1.9 1zM209.9 138.5h-62.5c-4.7 0-8.8.7-12 2.2-.7.3-1.3.6-1.9 1-3.6 2.3-6 6.3-6 10.9 0 2.9 1.2 9.8 10.4 12.6 2.4.7 4.7 1.6 6.9 2.1 3.5.8 7.2 1.4 8.7 3.1.9.9 1.1 1.9 1.1 2.7 0 .9-.3 2.2-1.8 3.2-1 .7-2.6 1.2-5.7 1.2h-34.7l-5.6 9.7h45.5c8.2 0 13.9-6.6 13.6-13.6-.3-9.3-7.7-12.9-14.4-14.7-.9-.2-1.7-.5-2.6-.6-3.2-.7-5.9-1.6-8-2.6-1.2-.6-2-1.9-2-3.4 0-1.4.9-2.8 2.2-3.3 1-.4 1.9-.6 4.6-.7H171.3v38.9h10v-38.9h23l5.6-9.8zM100.8 138.4 81 172.9l-13.7-23.6h7.4l6.3-10.9H48.7l28.1 48.7h8.3l28.1-48.7zM229.3 187.1h21.4l-28.1-48.7h-8.2l-11.3 19.7-3.9 6.6-12.9 22.4h12.4l6.7-11.7 6.8 11.7h11.7l-12.6-21.8 7.2-12.5 13.7 23.6h-9zM117.7 138.4l-28.3 48.7h13.1l28.3-48.7z"/></g></svg>