<svg id="圖層_1" data-name="圖層 1" xmlns="http://www.w3.org/2000/svg" viewBox="0 0 300 100"><defs><style>.cls-1{fill:#80bc00}</style></defs><path class="cls-1" d="M48.1 8.78a39.84 39.84 0 1 0 17.28 75.74 9.88 9.88 0 1 0 14.16-11.46A39.82 39.82 0 0 0 48.1 8.78Zm0 4.29a8 8 0 1 1-8 8 8 8 0 0 1 8-8Zm0 51.4A15.94 15.94 0 1 1 64 48.53a15.94 15.94 0 0 1-15.9 15.94ZM174.39 29.31a16.82 16.82 0 0 1 1.89-1 12.56 12.56 0 0 0-1.89 1ZM249.87 26.24H188.1a29.11 29.11 0 0 0-11.82 2.14 15.37 15.37 0 0 0-1.89 1 12.69 12.69 0 0 0-5.91 10.73c0 2.82 1.23 9.65 10.26 12.48 2.33.73 4.64 1.58 6.83 2.08 3.46.81 7.07 1.41 8.64 3.1a3.74 3.74 0 0 1-.66 5.81c-1 .66-2.61 1.18-5.68 1.18h-34.34L148 74.32h45a13.21 13.21 0 0 0 13.47-13.45c-.31-9.23-7.64-12.74-14.22-14.57-.86-.24-1.71-.45-2.53-.64a46.59 46.59 0 0 1-7.91-2.52 3.74 3.74 0 0 1-2-3.31 3.7 3.7 0 0 1 2.14-3.3c1-.44 1.91-.63 4.57-.71h25.25v38.46h9.89V35.82h22.71ZM142.06 26.18l-19.59 34.09-13.5-23.37h7.3l6.25-10.72h-31.9l27.71 48.14h8.26l27.72-48.14h-12.25zM269.09 74.32h21.17l-27.8-48.14h-8.09l-11.25 19.48-3.76 6.5v.01l-12.79 22.15h12.25l6.66-11.55 6.67 11.55h11.61l-12.48-21.59 7.13-12.36 13.5 23.38h-8.92l6.1 10.57zM158.8 26.18l-27.97 48.14h12.95l27.97-48.14H158.8z"/></svg>