<svg xmlns="http://www.w3.org/2000/svg" width="42" height="42" viewBox="0 0 42 42">
    <path fill="#fff" d="M21 0A21 21 0 1 1 0 21 21 21 0 0 1 21 0z" opacity="0.3"/>
    <path fill="none" d="M0 0h24v24H0z" transform="translate(9 9)"/>
    <path fill="#fff" d="M14.727 1H3.818A1.824 1.824 0 0 0 2 2.818v12.727h1.818V2.818h10.909zm2.727 3.636h-10a1.824 1.824 0 0 0-1.818 1.819v12.727A1.824 1.824 0 0 0 7.455 21h10a1.824 1.824 0 0 0 1.818-1.818V6.455a1.824 1.824 0 0 0-1.818-1.819zm0 14.545h-10V6.455h10z" transform="translate(10.827 9.958)"/>
</svg>
