<svg xmlns="http://www.w3.org/2000/svg" id="add_app_hover" width="42" height="42" viewBox="0 0 42 42">
    <defs>
        <style>
            .cls-2{fill:#fff}
        </style>
    </defs>
    <g id="Group_1105">
        <rect id="round" width="42" height="42" fill="#80bc00" rx="21"/>
    </g>
    <g id="Component_171_248" transform="translate(10.465 9.525)">
        <path id="Rectangle_236" d="M0 0H12.29V2H0z" class="cls-2" transform="translate(4.04 11.853)"/>
        <path id="Rectangle_237" d="M0 0H12.29V2H0z" class="cls-2" transform="translate(4.04 14.853)"/>
        <path id="Path_903" d="M21.05 10.9v7.553H4.39v-9.94h14.56V7.05H15.1v-4.1H4.39a2 2 0 0 0-2 2v13.4a2 2 0 0 0 2 2h16.66a2 2 0 0 0 2-2V10.9zM9 5.683a1.279 1.279 0 1 1 0 .049zm-2.87-1.23a1.28 1.28 0 1 1-1.28 1.28 1.28 1.28 0 0 1 1.28-1.28z" class="cls-2" transform="translate(-2.39 .9)"/>
        <path id="Path_695" d="M26.9 5.047h-3.85V8.9h-2.1V5.05H17.1v-2.1h3.85V-.9h2.1v3.85h3.85z" class="cls-2" transform="translate(-2.39 .9)"/>
    </g>
</svg>
