<svg xmlns="http://www.w3.org/2000/svg" width="42" height="42" viewBox="0 0 42 42">
    <g>
        <rect width="42" height="42" fill="#ddd" rx="21"/>
    </g>
    <g>
        <path fill="#595758" d="M23.909 6.5H6.091A4.95 4.95 0 0 0 1 11.264v2.382a4.95 4.95 0 0 0 5.091 4.764h17.818A4.95 4.95 0 0 0 29 13.647v-2.383A4.95 4.95 0 0 0 23.909 6.5zm-12.914 8.933H5.479v-2.382h5.516zm0-3.573H5.479V9.478h5.516zm4.676 2.74a2.219 2.219 0 0 1-2.288-2.142 2.294 2.294 0 0 1 4.578 0 2.22 2.22 0 0 1-2.29 2.142zm6.966 0a2.219 2.219 0 0 1-2.288-2.142 2.293 2.293 0 0 1 4.577 0 2.219 2.219 0 0 1-2.29 2.142z" transform="translate(9 6.5) translate(-3 5.707)"/>
    </g>
    <path fill="#80bc00" stroke="rgba(0,0,0,0)" stroke-miterlimit="10" d="M16.8 12.947h-3.85V16.8h-2.1v-3.85H7v-2.1h3.85V7h2.1v3.85h3.85z" transform="translate(16)"/>
</svg>
