<svg id="Component_121_2" data-name="Component 121 – 2" xmlns="http://www.w3.org/2000/svg" width="24" height="24" viewBox="0 0 24 24">
  <path id="Path_128" data-name="Path 128" d="M0,0H24V24H0Z" fill="none"/>
  <path id="Path_489" data-name="Path 489" d="M-17.4,7.226h-1.294V6.133a2.169,2.169,0,0,0-2.167-2.167h-5.323c-.306-.424-.756-1.048-.887-1.24a3.246,3.246,0,0,0-2.971-1.5h-5.485A2.169,2.169,0,0,0-37.694,3.4V16.628A2.169,2.169,0,0,0-35.527,18.8h14.666a2.148,2.148,0,0,0,1.167-.347v0l.011-.009a2.1,2.1,0,0,0,.2-.159,2.7,2.7,0,0,0,.833-1.182,6.256,6.256,0,0,0,.229-.883l1.878-7.732A.929.929,0,0,0-17.4,7.226Zm-18.127-4h5.485a1.3,1.3,0,0,1,1.32.624c.21.309,1.218,1.7,1.218,1.7a1,1,0,0,0,.81.413h5.833a.171.171,0,0,1,.167.167V7.226l-12.6,0A1.658,1.658,0,0,0-34.77,8.491l-.924,3.8V3.4A.171.171,0,0,1-35.527,3.23Z" transform="translate(39.694 1.77)" fill="#595758"/>
</svg>
