<svg xmlns="http://www.w3.org/2000/svg" width="14" height="14" viewBox="0 0 14 14"><defs><style>.a{opacity:0.2;}.b{fill:none;}.c{fill:#595758;}</style></defs><g class="a"><path class="b" d="M0,0H14V14H0Z"/><path class="c" d="M8.7,12.312l3.332,2.052a.325.325,0,0,0,.483-.355l-.883-3.868,2.938-2.6a.332.332,0,0,0-.187-.579l-3.873-.335L9,2.985a.318.318,0,0,0-.593,0L6.89,6.629l-3.873.335a.331.331,0,0,0-.18.579l2.938,2.6-.883,3.868a.325.325,0,0,0,.483.355Z" transform="translate(-1.702 -1.739)"/></g></svg>