<svg id="rds_fail_access" xmlns="http://www.w3.org/2000/svg" width="24" height="24" viewBox="0 0 24 24">
  <defs>
    <style>
      .cls-1 {
        fill: none;
      }

      .cls-2 {
        fill: #595758;
      }

      .cls-3 {
        fill: #dc3545;
      }

      .cls-4 {
        fill: #fff;
      }

      .cls-5, .cls-6 {
        stroke: none;
      }

      .cls-6 {
        fill: #fff;
      }
    </style>
  </defs>
  <path id="Path_87" data-name="Path 87" class="cls-1" d="M0,0H24V24H0Z"/>
  <g id="Group_1092" data-name="Group 1092" transform="translate(-1164 -768)">
    <path id="Path_560" data-name="Path 560" class="cls-2" d="M-.583,88.719h-16a3,3,0,0,0-3,3v10a3,3,0,0,0,3,3h16a3,3,0,0,0,3-3v-10A3,3,0,0,0-.583,88.719Zm1,13a1,1,0,0,1-1,1h-16a1,1,0,0,1-1-1v-10a1,1,0,0,1,1-1h16a1,1,0,0,1,1,1Z" transform="translate(1184.583 682.281)"/>
    <path id="Path_561" data-name="Path 561" class="cls-2" d="M-.492,105.719H-18.674a.958.958,0,0,0-.909,1,.958.958,0,0,0,.909,1H-.492a.958.958,0,0,0,.909-1A.958.958,0,0,0-.492,105.719Z" transform="translate(1184.583 682.281)"/>
    <path id="Path_562" data-name="Path 562" class="cls-2" d="M-4.083,96.875a1.961,1.961,0,0,0-.309.031c.012-.125.038-.246.038-.375a3.968,3.968,0,0,0-3.969-3.968,3.965,3.965,0,0,0-3.864,3.089,2.673,2.673,0,0,0-.271-.027,2.625,2.625,0,0,0-2.625,2.625,2.625,2.625,0,0,0,2.625,2.625h8.375a2,2,0,0,0,2-2A2,2,0,0,0-4.083,96.875Z" transform="translate(1184.583 682.281)"/>
  </g>
  <g id="Group_4837" data-name="Group 4837" transform="translate(5 9)">
    <g id="Path_653" data-name="Path 653" class="cls-3" transform="translate(5 1)">
      <path class="cls-5" d="M 7.000000476837158 13.5 C 3.415890455245972 13.5 0.5000004768371582 10.58411026000977 0.5000004768371582 7.000000476837158 C 0.5000004768371582 3.415890455245972 3.415890455245972 0.5000004768371582 7.000000476837158 0.5000004768371582 C 10.58411026000977 0.5000004768371582 13.5 3.415890455245972 13.5 7.000000476837158 C 13.5 10.58411026000977 10.58411026000977 13.5 7.000000476837158 13.5 Z"/>
      <path class="cls-6" d="M 7.000000476837158 1.000000953674316 C 3.691590309143066 1.000000953674316 1.000000953674316 3.691590309143066 1.000000953674316 7.000000476837158 C 1.000000953674316 10.30841064453125 3.691590309143066 13 7.000000476837158 13 C 10.30841064453125 13 13 10.30841064453125 13 7.000000476837158 C 13 3.691590309143066 10.30841064453125 1.000000953674316 7.000000476837158 1.000000953674316 M 7.000000476837158 9.5367431640625e-07 C 10.86599063873291 9.5367431640625e-07 14 3.134010314941406 14 7.000000476837158 C 14 10.86599063873291 10.86599063873291 14 7.000000476837158 14 C 3.134010314941406 14 9.5367431640625e-07 10.86599063873291 9.5367431640625e-07 7.000000476837158 C 9.5367431640625e-07 3.134010314941406 3.134010314941406 9.5367431640625e-07 7.000000476837158 9.5367431640625e-07 Z"/>
    </g>
    <g id="disable_icon" transform="translate(8 4)">
      <path id="Path_599" data-name="Path 599" class="cls-4" d="M13.5,13.175a4,4,0,1,0,4,4A4,4,0,0,0,13.5,13.175Zm-3.2,4a3.2,3.2,0,0,1,3.2-3.2,3.161,3.161,0,0,1,1.96.676l-4.484,4.484A3.161,3.161,0,0,1,10.3,17.175Zm3.2,3.2a3.161,3.161,0,0,1-1.96-.676l4.484-4.484a3.161,3.161,0,0,1,.676,1.96A3.2,3.2,0,0,1,13.5,20.375Z" transform="translate(-9.5 -13.175)"/>
    </g>
  </g>
</svg>
