<svg width="24" height="24" viewBox="0 0 24 24" fill="none" xmlns="http://www.w3.org/2000/svg">
<path d="M20 3H4C3.20435 3 2.44129 3.31607 1.87868 3.87868C1.31607 4.44129 1 5.20435 1 6V16C1 16.7956 1.31607 17.5587 1.87868 18.1213C2.44129 18.6839 3.20435 19 4 19H20C20.7956 19 21.5587 18.6839 22.1213 18.1213C22.6839 17.5587 23 16.7956 23 16V6C23 5.60603 22.9224 5.21593 22.7716 4.85195C22.6209 4.48797 22.3999 4.15725 22.1213 3.87868C21.8427 3.6001 21.512 3.37913 21.1481 3.22836C20.7841 3.0776 20.394 3 20 3ZM21 16C21 16.2652 20.8946 16.5196 20.7071 16.7071C20.5196 16.8946 20.2652 17 20 17H4C3.73478 17 3.48043 16.8946 3.29289 16.7071C3.10536 16.5196 3 16.2652 3 16V6C3 5.73478 3.10536 5.48043 3.29289 5.29289C3.48043 5.10536 3.73478 5 4 5H20C20.2652 5 20.5196 5.10536 20.7071 5.29289C20.8946 5.48043 21 5.73478 21 6V16Z" fill="#80BC00"/>
<path d="M22 20H2C1.73478 20 1.48043 20.1054 1.29289 20.2929C1.10536 20.4804 1 20.7348 1 21C1 21.2652 1.10536 21.5196 1.29289 21.7071C1.48043 21.8946 1.73478 22 2 22H22C22.2652 22 22.5196 21.8946 22.7071 21.7071C22.8946 21.5196 23 21.2652 23 21C23 20.7348 22.8946 20.4804 22.7071 20.2929C22.5196 20.1054 22.2652 20 22 20Z" fill="#80BC00"/>
<path d="M16.5 11.156C16.3963 11.1581 16.293 11.1685 16.191 11.187C16.203 11.062 16.229 10.941 16.229 10.812C16.229 10.2908 16.1263 9.77476 15.9269 9.29327C15.7274 8.81179 15.435 8.37431 15.0664 8.00584C14.6979 7.63736 14.2603 7.3451 13.7788 7.14575C13.2973 6.9464 12.7812 6.84386 12.26 6.84399C11.3612 6.84468 10.4892 7.15073 9.78718 7.71198C9.08512 8.27323 8.59458 9.05637 8.396 9.93299C8.30618 9.91939 8.21573 9.91038 8.125 9.90599C7.42881 9.90599 6.76113 10.1826 6.26884 10.6748C5.77656 11.1671 5.5 11.8348 5.5 12.531C5.5 13.2272 5.77656 13.8949 6.26884 14.3871C6.76113 14.8794 7.42881 15.156 8.125 15.156H16.5C17.0304 15.156 17.5391 14.9453 17.9142 14.5702C18.2893 14.1951 18.5 13.6864 18.5 13.156C18.5 12.6256 18.2893 12.1168 17.9142 11.7418C17.5391 11.3667 17.0304 11.156 16.5 11.156Z" fill="#80BC00"/>
</svg>
