<svg width="24" height="24" viewBox="0 0 24 24" fill="none" xmlns="http://www.w3.org/2000/svg">
<path d="M19 7H5C3.94011 7.00317 2.92453 7.42561 2.17507 8.17507C1.42561 8.92453 1.00317 9.94011 1 11V13C1.00317 14.0599 1.42561 15.0755 2.17507 15.8249C2.92453 16.5744 3.94011 16.9968 5 17H19C20.0599 16.9968 21.0755 16.5744 21.8249 15.8249C22.5744 15.0755 22.9968 14.0599 23 13V11C22.9968 9.94011 22.5744 8.92453 21.8249 8.17507C21.0755 7.42561 20.0599 7.00317 19 7ZM8.853 14.5H4.519V12.5H8.853V14.5ZM8.853 11.5H4.519V9.5H8.853V11.5ZM12.527 13.8C12.171 13.8 11.823 13.6944 11.527 13.4966C11.231 13.2989 11.0003 13.0177 10.864 12.6888C10.7278 12.3599 10.6921 11.998 10.7616 11.6488C10.831 11.2997 11.0025 10.9789 11.2542 10.7272C11.5059 10.4755 11.8267 10.304 12.1758 10.2346C12.525 10.1651 12.8869 10.2008 13.2158 10.337C13.5447 10.4733 13.8259 10.704 14.0236 11C14.2214 11.296 14.327 11.644 14.327 12C14.327 12.2364 14.2804 12.4704 14.19 12.6888C14.0995 12.9072 13.9669 13.1056 13.7998 13.2728C13.6326 13.4399 13.4342 13.5725 13.2158 13.663C12.9974 13.7534 12.7634 13.8 12.527 13.8ZM18 13.8C17.644 13.8 17.296 13.6944 17 13.4966C16.704 13.2989 16.4733 13.0177 16.337 12.6888C16.2008 12.3599 16.1651 11.998 16.2346 11.6488C16.304 11.2997 16.4755 10.9789 16.7272 10.7272C16.9789 10.4755 17.2997 10.304 17.6488 10.2346C17.998 10.1651 18.3599 10.2008 18.6888 10.337C19.0177 10.4733 19.2989 10.704 19.4966 11C19.6944 11.296 19.8 11.644 19.8 12C19.8 12.4774 19.6104 12.9352 19.2728 13.2728C18.9352 13.6104 18.4774 13.8 18 13.8Z" fill="#80BC00"/>
</svg>
