<svg width="24" height="24" viewBox="0 0 24 24" fill="none" xmlns="http://www.w3.org/2000/svg">
<circle cx="19" cy="5" r="4" fill="#FF9E18"/>
<path fill-rule="evenodd" clip-rule="evenodd" d="M19 10C19.9606 10 20.858 9.7291 21.6198 9.25952C21.8674 10.1304 22 11.0497 22 12C22 17.5228 17.5228 22 12 22C6.47715 22 2 17.5228 2 12C2 6.47715 6.47715 2 12 2C12.9503 2 13.8696 2.13255 14.7405 2.38017C14.2709 3.14202 14 4.03937 14 5C14 5.49314 14.0714 5.9696 14.2044 6.41962C13.5091 6.14497 12.762 6 12 6C10.8133 6 9.65328 6.35189 8.66658 7.01118C7.67989 7.67047 6.91085 8.60754 6.45673 9.7039C6.0026 10.8003 5.88378 12.0067 6.11529 13.1705C6.3468 14.3344 6.91825 15.4035 7.75736 16.2426C8.59648 17.0818 9.66557 17.6532 10.8295 17.8847C11.9933 18.1162 13.1997 17.9974 14.2961 17.5433C15.3925 17.0891 16.3295 16.3201 16.9888 15.3334C17.6481 14.3467 18 13.1867 18 12C18 11.238 17.855 10.4909 17.5804 9.7956C18.0304 9.92861 18.5069 10 19 10ZM8.60589 8.60589C7.70571 9.50606 7.2 10.727 7.2 12C7.19782 13.0661 7.55505 14.1019 8.214 14.94L14.94 8.214C14.1019 7.55505 13.0661 7.19782 12 7.2C10.727 7.2 9.50606 7.70571 8.60589 8.60589ZM9.06 15.786C9.89811 16.445 10.9339 16.8022 12 16.8C13.273 16.8 14.4939 16.2943 15.3941 15.3941C16.2943 14.4939 16.8 13.273 16.8 12C16.8022 10.9339 16.445 9.89811 15.786 9.06L9.06 15.786Z" fill="#5250DA"/>
</svg>
