<?xml version="1.0" encoding="utf-8"?>
<!-- Generator: Adobe Illustrator 24.2.3, SVG Export Plug-In . SVG Version: 6.00 Build 0)  -->
<svg version="1.1" id="圖層_1" xmlns="http://www.w3.org/2000/svg" xmlns:xlink="http://www.w3.org/1999/xlink" x="0px" y="0px"
	 viewBox="0 0 13.23 8.81" style="enable-background:new 0 0 13.23 8.81;" xml:space="preserve">
<style type="text/css">
	.st0{fill:#36BAC3;}
	.st1{fill:#FFFFFF;}
</style>
<g>
	<g>
		<path class="st0" d="M42.97-4h-8.82c-0.4,0-0.72,0.32-0.72,0.72v0.96h7c0.87,0,1.58,0.71,1.58,1.58v7h0.96
			c0.4,0,0.72-0.32,0.72-0.72v-8.82C43.69-3.68,43.36-4,42.97-4z"/>
		<path class="st0" d="M40.42-1.45H31.6c-0.4,0-0.72,0.32-0.72,0.72v8.82c0,0.4,0.32,0.72,0.72,0.72h8.82c0.4,0,0.72-0.32,0.72-0.72
			v-8.82C41.14-1.13,40.82-1.45,40.42-1.45z"/>
		<path class="st1" d="M36.7,4.32v2h-1.38v-2h-1.84V3.04h1.84v-2h1.38v2h1.84v1.28H36.7z"/>
	</g>
</g>
<path class="st0" d="M12.04,0.21H1.18c-0.57,0-1.03,0.46-1.03,1.03v6.42c0,0.57,0.46,1.03,1.03,1.03h10.85
	c0.57,0,1.03-0.46,1.03-1.03V1.24C13.06,0.67,12.6,0.21,12.04,0.21z M12.51,8.23c-0.05,0.05-0.12,0.08-0.18,0.08
	c-0.07,0-0.13-0.03-0.18-0.08l-3.5-3.5C8.62,4.71,8.6,4.68,8.59,4.65L7.51,5.62C7.27,5.86,6.95,5.98,6.64,5.98
	c-0.32,0-0.64-0.12-0.87-0.35L4.64,4.61C4.63,4.65,4.61,4.69,4.57,4.73l-3.5,3.5C1.02,8.28,0.96,8.3,0.89,8.3
	c-0.07,0-0.13-0.03-0.18-0.08c-0.1-0.1-0.1-0.26,0-0.36l3.5-3.5C4.24,4.34,4.27,4.32,4.3,4.31l-3.58-3.2
	C0.62,1.02,0.61,0.85,0.7,0.75c0.09-0.11,0.26-0.12,0.36-0.02l5.07,4.52c0.14,0.14,0.33,0.21,0.51,0.21C6.83,5.46,7,5.4,7.15,5.25
	l5-4.46l0,0c0.11-0.09,0.27-0.08,0.36,0.02c0.09,0.1,0.08,0.27-0.02,0.36L8.95,4.33c0.02,0.01,0.04,0.02,0.05,0.03l3.5,3.5
	C12.61,7.97,12.61,8.13,12.51,8.23z"/>
</svg>
