<svg id="menu_server" xmlns="http://www.w3.org/2000/svg" width="40" height="40" viewBox="0 0 40 40">
  <defs>
    <style>
      .cls-1 {
        fill: #595758;
      }
    </style>
  </defs>
  <path id="Path_562" data-name="Path 562" class="cls-1" d="M28.3,17.3a3.494,3.494,0,0,0-.568.06c.022-.241.07-.474.07-.722A7.473,7.473,0,0,0,20.507,9h0a7.371,7.371,0,0,0-7.1,5.945,4.634,4.634,0,0,0-.5-.051,4.941,4.941,0,0,0-4.826,5.051v0A4.943,4.943,0,0,0,12.9,25H28.3a3.854,3.854,0,0,0,0-7.7Z" transform="translate(0 -0.052)"/>
  <path id="Path_1165" data-name="Path 1165" class="cls-1" d="M34.008,3a3,3,0,0,1,3,3V28a3,3,0,0,1-3,3H6.089a3,3,0,0,1-3-3V6a3,3,0,0,1,3-3H34.008m0-3H6.089A6.014,6.014,0,0,0,.1,6V28a6.014,6.014,0,0,0,5.992,6H34.008A6.014,6.014,0,0,0,40,28V6a6.014,6.014,0,0,0-5.992-6Z" transform="translate(0)"/>
  <g id="Group_4346" data-name="Group 4346" transform="translate(0 37)">
    <path id="Path_1166" data-name="Path 1166" class="cls-1" d="M38.407,40.139H1.5a1.5,1.5,0,0,1,0-3h36.91a1.5,1.5,0,0,1,0,3Z" transform="translate(0 -37.139)"/>
  </g>
</svg>
