<svg xmlns="http://www.w3.org/2000/svg" id="icon_admin" width="60" height="60.042" viewBox="0 0 60 60.042">
    <defs>
        <style>
            .cls-1,.cls-7{fill:#fff}.cls-1,.cls-3{stroke:#b4b4b4}.cls-1,.cls-2,.cls-3{stroke-linecap:round;stroke-linejoin:round}.cls-1,.cls-3{stroke-width:2px}.cls-2,.cls-3,.cls-9{fill:none}.cls-5{fill:#80bc00}.cls-10,.cls-8{stroke:none}.cls-10{fill:#b4b4b4}
        </style>
    </defs>
    <g id="Group_2410" transform="translate(0 .021)">
        <g id="Group_2405">
            <g id="Ellipse_166" class="cls-1" transform="translate(0 36.004)">
                <ellipse cx="12" cy="12.008" class="cls-8" rx="12" ry="12.008"/>
                <ellipse cx="12" cy="12.008" class="cls-9" rx="11" ry="11.008"/>
            </g>
            <g id="Path_1005" class="cls-2">
                <path d="M12 60.021a11.98 11.98 0 0 0 9.853-5.164 10.069 10.069 0 0 0-19.706 0A11.98 11.98 0 0 0 12 60.021z" class="cls-8"/>
                <path d="M12 58.021c2.969 0 5.775-1.33 7.67-3.596-.477-1.45-1.364-2.752-2.556-3.731-1.436-1.18-3.252-1.83-5.114-1.83s-3.678.65-5.114 1.83c-1.192.979-2.08 2.282-2.555 3.731 1.894 2.266 4.7 3.596 7.669 3.596m0 2c-4.084 0-7.685-2.046-9.853-5.164.96-4.565 5.006-7.993 9.853-7.993 4.847 0 8.893 3.428 9.853 7.993-2.168 3.118-5.769 5.164-9.853 5.164z" class="cls-10"/>
            </g>
            <g id="Ellipse_167" class="cls-3" transform="translate(7.8 40.523)">
                <circle cx="4.2" cy="4.2" r="4.2" class="cls-8"/>
                <circle cx="4.2" cy="4.2" r="3.2" class="cls-9"/>
            </g>
        </g>
        <path id="Path_1006" d="M25.228 34.059v6.9h-4.006" class="cls-3"/>
        <path id="Path_1007" d="M25.228 25.941v-6.9h-4.006" class="cls-3"/>
        <g id="Group_2406">
            <g id="Ellipse_168" fill="#fff" stroke="#80bc00" stroke-miterlimit="10" stroke-width="2px" transform="translate(.029 .021)">
                <ellipse cx="12" cy="12.008" class="cls-8" rx="12" ry="12.008"/>
                <ellipse cx="12" cy="12.008" class="cls-9" rx="11" ry="11.008"/>
            </g>
            <path id="Path_1008" d="M12.029 24.037a11.976 11.976 0 0 0 9.853-5.164 10.069 10.069 0 0 0-19.706 0 11.978 11.978 0 0 0 9.853 5.164z" class="cls-5"/>
            <circle id="Ellipse_169" cx="4.2" cy="4.2" r="4.2" class="cls-5" transform="translate(7.829 4.539)"/>
        </g>
        <g id="Group_2407">
            <g id="Ellipse_170" class="cls-1" transform="translate(36 36.004)">
                <ellipse cx="12" cy="12.008" class="cls-8" rx="12" ry="12.008"/>
                <ellipse cx="12" cy="12.008" class="cls-9" rx="11" ry="11.008"/>
            </g>
            <g id="Path_1009" class="cls-2">
                <path d="M48 60.021a11.98 11.98 0 0 1-9.853-5.164 10.069 10.069 0 0 1 19.706 0A11.98 11.98 0 0 1 48 60.021z" class="cls-8"/>
                <path d="M48 58.021c2.969 0 5.775-1.33 7.67-3.596-.477-1.45-1.364-2.752-2.556-3.731-1.436-1.18-3.252-1.83-5.114-1.83s-3.678.65-5.114 1.83c-1.192.979-2.08 2.282-2.555 3.731 1.894 2.266 4.7 3.596 7.669 3.596m0 2c-4.084 0-7.685-2.046-9.853-5.164.96-4.565 5.006-7.993 9.853-7.993 4.847 0 8.893 3.428 9.853 7.993-2.168 3.118-5.769 5.164-9.853 5.164z" class="cls-10"/>
            </g>
            <g id="Ellipse_171" class="cls-3" transform="translate(43.8 40.523)">
                <circle cx="4.2" cy="4.2" r="4.2" class="cls-8"/>
                <circle cx="4.2" cy="4.2" r="3.2" class="cls-9"/>
            </g>
        </g>
        <g id="Group_2408">
            <g id="Ellipse_172" class="cls-1" transform="translate(36 -.021)">
                <ellipse cx="12" cy="12.008" class="cls-8" rx="12" ry="12.008"/>
                <ellipse cx="12" cy="12.008" class="cls-9" rx="11" ry="11.008"/>
            </g>
            <g id="Path_1010" class="cls-2">
                <path d="M48 24a11.977 11.977 0 0 1-9.853-5.164 10.069 10.069 0 0 1 19.706 0A11.977 11.977 0 0 1 48 24z" class="cls-8"/>
                <path d="M48 21.996c2.97 0 5.776-1.33 7.67-3.596-.477-1.45-1.364-2.752-2.556-3.731-1.436-1.18-3.252-1.83-5.114-1.83s-3.678.65-5.114 1.83c-1.192.979-2.08 2.282-2.555 3.731 1.893 2.267 4.7 3.596 7.669 3.596m0 2c-4.084 0-7.685-2.045-9.853-5.164.96-4.565 5.006-7.993 9.853-7.993 4.847 0 8.893 3.428 9.853 7.993-2.168 3.119-5.769 5.164-9.853 5.164z" class="cls-10"/>
            </g>
            <g id="Ellipse_173" class="cls-3" transform="translate(43.8 4.498)">
                <circle cx="4.2" cy="4.2" r="4.2" class="cls-8"/>
                <circle cx="4.2" cy="4.2" r="3.2" class="cls-9"/>
            </g>
        </g>
        <path id="Path_1011" d="M34.772 34.059v6.9h4.006" class="cls-3"/>
        <path id="Path_1012" d="M34.772 25.941v-6.9h4.006" class="cls-3"/>
        <g id="Group_2409">
            <g id="Rectangle_484" fill="#b4b4b4" stroke="#b4b4b4" stroke-linecap="round" stroke-linejoin="round" stroke-width="2px" transform="translate(18.958 24.955)">
                <rect width="22" height="10.007" class="cls-8" rx="4"/>
                <rect width="20" height="8.007" x="1" y="1" class="cls-9" rx="3"/>
            </g>
            <path id="Rectangle_485" d="M0 0H4.333V2.001H0z" class="cls-7" transform="translate(22.478 27.457)"/>
            <path id="Rectangle_486" d="M0 0H4.333V2.001H0z" class="cls-7" transform="translate(22.478 30.459)"/>
            <rect id="Rectangle_487" width="3.596" height="3.599" class="cls-7" rx="1.798" transform="translate(28.687 28.159)"/>
            <rect id="Rectangle_488" width="3.596" height="3.599" class="cls-7" rx="1.798" transform="translate(34.16 28.159)"/>
        </g>
    </g>
</svg>
