<svg xmlns="http://www.w3.org/2000/svg" id="icon_database" width="60" height="60" viewBox="0 0 60 60">
    <defs>
        <style>
            .cls-2,.cls-3{fill:#fff;stroke-linecap:round;stroke-linejoin:round}.cls-3{stroke:#b4b4b4;stroke-width:2px}.cls-5{fill:#80bc00}.cls-6,.cls-7{stroke:none}.cls-7{fill:#b4b4b4}.cls-8{fill:none}
        </style>
    </defs>
    <path id="Rectangle_474" fill="rgba(255,255,255,0)" d="M0 0H60V60H0z"/>
    <g id="Group_2341" transform="translate(.225 271.859)">
        <g id="Group_2340">
            <g id="Group_2339">
                <g id="Group_2336">
                    <g id="Path_954" class="cls-2">
                        <path d="M30-212.859c-6.62 0-12.828-.973-17.481-2.74-4.285-1.626-6.743-3.753-6.743-5.835v-13.303h48.448v13.303c0 2.082-2.458 4.209-6.743 5.836-4.653 1.766-10.862 2.739-17.481 2.739z" class="cls-6"/>
                        <path d="M6.776-233.737v12.303c0 1.595 2.336 3.473 6.098 4.9 4.543 1.725 10.625 2.675 17.126 2.675 6.501 0 12.583-.95 17.126-2.674 3.762-1.428 6.098-3.306 6.098-4.901v-12.303H6.776m-2-2h50.448v14.303c0 5.288-11.293 9.575-25.224 9.575-13.931 0-25.224-4.287-25.224-9.575v-14.303z" class="cls-7"/>
                    </g>
                    <g id="Ellipse_130" class="cls-3" transform="translate(4.776 -244.626)">
                        <ellipse cx="25.224" cy="9.575" class="cls-6" rx="25.224" ry="9.575"/>
                        <ellipse cx="25.224" cy="9.575" class="cls-8" rx="24.224" ry="8.575"/>
                    </g>
                </g>
                <g id="Group_2337">
                    <g id="Path_955" class="cls-2">
                        <path d="M30-226.475c-6.62 0-12.828-.973-17.481-2.74-4.285-1.626-6.743-3.754-6.743-5.836v-13.303h48.448v13.303c0 2.082-2.458 4.21-6.743 5.836-4.653 1.767-10.862 2.74-17.481 2.74z" class="cls-6"/>
                        <path d="M6.776-247.354v12.303c0 1.596 2.336 3.474 6.098 4.902 4.543 1.724 10.625 2.674 17.126 2.674 6.501 0 12.583-.95 17.126-2.674 3.762-1.428 6.098-3.306 6.098-4.902v-12.303H6.776m-2-2h50.448v14.303c0 5.289-11.293 9.576-25.224 9.576-13.931 0-25.224-4.287-25.224-9.576v-14.303z" class="cls-7"/>
                    </g>
                    <g id="Ellipse_131" fill="#80bc00" stroke="#b4b4b4" stroke-linecap="round" stroke-linejoin="round" stroke-width="2px" transform="translate(4.776 -258.242)">
                        <ellipse cx="25.224" cy="9.575" class="cls-6" rx="25.224" ry="9.575"/>
                        <ellipse cx="25.224" cy="9.575" class="cls-8" rx="24.224" ry="8.575"/>
                    </g>
                </g>
                <g id="Group_2338">
                    <g id="Path_956" class="cls-2">
                        <path d="M30-240.092c-6.62 0-12.828-.973-17.481-2.74-4.285-1.626-6.743-3.753-6.743-5.835v-13.303h48.448v13.303c0 2.082-2.458 4.209-6.743 5.836-4.653 1.766-10.862 2.739-17.481 2.739z" class="cls-6"/>
                        <path d="M6.776-260.97v12.303c0 1.595 2.336 3.473 6.098 4.9 4.543 1.725 10.625 2.675 17.126 2.675 6.501 0 12.583-.95 17.126-2.674 3.762-1.428 6.098-3.306 6.098-4.901v-12.303H6.776m-2-2h50.448v14.303c0 5.288-11.293 9.575-25.224 9.575-13.931 0-25.224-4.287-25.224-9.575v-14.303z" class="cls-7"/>
                    </g>
                    <g id="Ellipse_132" class="cls-3" transform="translate(4.776 -271.859)">
                        <ellipse cx="25.224" cy="9.575" class="cls-6" rx="25.224" ry="9.575"/>
                        <ellipse cx="25.224" cy="9.575" class="cls-8" rx="24.224" ry="8.575"/>
                    </g>
                </g>
            </g>
            <circle id="Ellipse_133" cx="1.898" cy="1.898" r="1.898" class="cls-5" transform="translate(44.244 -237.654)"/>
            <circle id="Ellipse_134" cx="1.898" cy="1.898" r="1.898" class="cls-5" transform="translate(44.244 -224.096)"/>
        </g>
        <circle id="Ellipse_135" cx="1.898" cy="1.898" r="1.898" class="cls-5" transform="translate(44.244 -250.565)"/>
    </g>
</svg>
