<svg xmlns="http://www.w3.org/2000/svg" viewBox="0 0 300 100" style="enable-background:new 0 0 300 100" xml:space="preserve"><style>.st1{fill:#fff}</style><g id="圖層_1"><path class="st1" d="M48.1 8.8c-22 0-39.8 17.8-39.8 39.8s17.8 39.8 39.8 39.8c6.2 0 12.1-1.4 17.3-3.9 1.2 4.1 5 7.1 9.5 7.1 5.5 0 9.9-4.4 9.9-9.9 0-3.8-2.1-7-5.2-8.7 5.3-6.7 8.4-15.2 8.4-24.4-.1-22-17.9-39.8-39.9-39.8zm0 4.3c4.4 0 8 3.6 8 8s-3.6 8-8 8-8-3.6-8-8c0-4.5 3.6-8 8-8zm0 51.4c-8.8 0-15.9-7.1-15.9-15.9s7.1-15.9 15.9-15.9S64 39.7 64 48.5s-7.1 16-15.9 16zM174.4 29.3c.6-.4 1.2-.7 1.9-1-.7.3-1.3.6-1.9 1z"/><path class="st1" d="M249.9 26.2h-61.8c-4.7 0-8.7.7-11.8 2.1-.7.3-1.3.6-1.9 1-3.5 2.3-5.9 6.2-5.9 10.7 0 2.8 1.2 9.6 10.3 12.5 2.3.7 4.6 1.6 6.8 2.1 3.5.8 7.1 1.4 8.6 3.1.9.9 1.1 1.9 1.1 2.6 0 .9-.3 2.2-1.8 3.2-1 .7-2.6 1.2-5.7 1.2h-34.3l-5.5 9.6h45c8.1 0 13.7-6.5 13.5-13.5-.3-9.2-7.6-12.7-14.2-14.6-.9-.2-1.7-.5-2.5-.6-3.1-.7-5.8-1.6-7.9-2.5-1.2-.6-2-1.9-2-3.3s.9-2.8 2.1-3.3c1-.4 1.9-.6 4.6-.7H211.9v38.5h9.9V35.8h22.7l5.4-9.6zM142.1 26.2l-19.6 34.1L109 36.9h7.3l6.2-10.7H90.6l27.7 48.1h8.3l27.7-48.1zM269.1 74.3h21.2l-27.8-48.1h-8.1l-11.3 19.5-3.7 6.5-12.8 22.1h12.2l6.7-11.5 6.7 11.5h11.6l-12.5-21.6 7.1-12.3 13.5 23.3H263zM158.8 26.2l-28 48.1h13l27.9-48.1z"/></g></svg>