<?xml version="1.0" encoding="utf-8"?>
<!-- Generator: Adobe Illustrator 24.2.3, SVG Export Plug-In . SVG Version: 6.00 Build 0)  -->
<svg version="1.1" xmlns="http://www.w3.org/2000/svg" xmlns:xlink="http://www.w3.org/1999/xlink" x="0px" y="0px"
	 viewBox="0 0 15.45 17.34" style="enable-background:new 0 0 15.45 17.34;" xml:space="preserve">
<style type="text/css">
	.st0{fill:#898989;}
</style>
<g id="圖層_1">
	<path class="st0" d="M15.35,5.47l0-0.07c-0.01-0.17-0.06-0.33-0.13-0.48l0,0c-0.04-0.08-0.08-0.15-0.13-0.21
		c-0.02-0.02-0.02-0.05-0.04-0.07l-0.96-1.09l-2.55-2.97c-0.18-0.21-0.39-0.37-0.66-0.43l0,0h0c0,0-9.1-0.01-9.1-0.01
		c-0.89,0-1.61,0.72-1.61,1.61v13.86c0,0.89,0.72,1.61,1.61,1.61h11.96c0.89,0,1.61-0.72,1.61-1.61L15.35,5.47z M14.35,15.62
		c0,0.33-0.27,0.61-0.61,0.61H1.78c-0.33,0-0.61-0.27-0.61-0.61V1.76c0-0.33,0.27-0.61,0.6-0.61l8.13,0.03l0.01,4.28
		c0,0.31,0.23,0.57,0.57,0.6h3.86V15.62z"/>
</g>
<g id="圖層_2">
</g>
</svg>
