<svg width="24" height="24" viewBox="0 0 24 24" fill="none" xmlns="http://www.w3.org/2000/svg">
<circle cx="12" cy="12" r="10" fill="#595758"/>
<path d="M12 6C10.8133 6 9.65328 6.35189 8.66658 7.01118C7.67989 7.67047 6.91085 8.60754 6.45673 9.7039C6.0026 10.8003 5.88378 12.0067 6.11529 13.1705C6.3468 14.3344 6.91825 15.4035 7.75736 16.2426C8.59648 17.0818 9.66557 17.6532 10.8295 17.8847C11.9933 18.1162 13.1997 17.9974 14.2961 17.5433C15.3925 17.0892 16.3295 16.3201 16.9888 15.3334C17.6481 14.3467 18 13.1867 18 12C18 10.4087 17.3679 8.88258 16.2426 7.75736C15.1174 6.63214 13.5913 6 12 6ZM7.2 12C7.2 10.727 7.70572 9.50606 8.60589 8.60589C9.50606 7.70571 10.727 7.2 12 7.2C13.0661 7.19782 14.1019 7.55505 14.94 8.214L8.214 14.94C7.55505 14.1019 7.19782 13.0661 7.2 12ZM12 16.8C10.9339 16.8022 9.89811 16.445 9.06 15.786L15.786 9.06C16.445 9.89811 16.8022 10.9339 16.8 12C16.8 13.273 16.2943 14.4939 15.3941 15.3941C14.4939 16.2943 13.273 16.8 12 16.8V16.8Z" fill="white"/>
</svg>
