<svg width="24" height="24" viewBox="0 0 24 24" fill="none" xmlns="http://www.w3.org/2000/svg">
<path d="M20.66 3H4C3.46957 3 2.96086 3.21071 2.58579 3.58579C2.21071 3.96086 2 4.46957 2 5V18.4C2 18.9304 2.21071 19.4391 2.58579 19.8142C2.96086 20.1893 3.46957 20.4 4 20.4H20.66C21.1904 20.4 21.6991 20.1893 22.0742 19.8142C22.4493 19.4391 22.66 18.9304 22.66 18.4V5C22.66 4.46957 22.4493 3.96086 22.0742 3.58579C21.6991 3.21071 21.1904 3 20.66 3ZM9.89 4.5C10.1452 4.50019 10.3946 4.5767 10.6061 4.71968C10.8175 4.86267 10.9814 5.0656 11.0766 5.30242C11.1718 5.53924 11.1941 5.79912 11.1405 6.04868C11.0869 6.29824 10.96 6.52609 10.7759 6.70294C10.5919 6.8798 10.3591 6.99759 10.1076 7.04119C9.85615 7.08479 9.59736 7.0522 9.36453 6.94761C9.13169 6.84301 8.93544 6.6712 8.80099 6.45423C8.66654 6.23726 8.60003 5.98505 8.61 5.73C8.62293 5.39926 8.76347 5.08639 9.00213 4.85706C9.24079 4.62772 9.55901 4.49975 9.89 4.5ZM5.74 4.5C5.99316 4.5 6.24063 4.57507 6.45113 4.71572C6.66162 4.85637 6.82569 5.05628 6.92257 5.29017C7.01945 5.52405 7.04479 5.78142 6.99541 6.02972C6.94602 6.27801 6.82411 6.50609 6.6451 6.6851C6.46609 6.86411 6.23801 6.98602 5.98972 7.03541C5.74142 7.08479 5.48405 7.05945 5.25016 6.96257C5.01628 6.86569 4.81637 6.70162 4.67572 6.49113C4.53507 6.28063 4.46 6.03316 4.46 5.78C4.46 5.44052 4.59486 5.11495 4.8349 4.8749C5.07495 4.63486 5.40052 4.5 5.74 4.5ZM20.66 18.5H4V8.56H20.66V18.5Z" fill="#DC3545"/>
<path d="M18.33 11H6.04004V13H18.33V11Z" fill="#DC3545"/>
<path d="M18.33 14H6.04004V16H18.33V14Z" fill="#DC3545"/>
</svg>
