<svg xmlns="http://www.w3.org/2000/svg" id="icon_modules" width="60" height="59.126" viewBox="0 0 60 59.126">
    <defs>
        <style>
            .cls-3,.cls-7{fill:#fff}.cls-3,.cls-4{stroke-linecap:round;stroke-linejoin:round;stroke-width:2px;stroke:#b4b4b4}.cls-4{fill:none}.cls-8{stroke:none}
        </style>
    </defs>
    <g id="Rectangle_477" fill="#fff" stroke="#80bc00" stroke-linecap="round" stroke-linejoin="round" stroke-width="2px">
        <rect width="60" height="50.516" class="cls-8" rx="5.351"/>
        <rect width="58" height="48.516" x="1" y="1" fill="none" rx="4.351"/>
    </g>
    <path id="Path_964" fill="#80bc00" d="M60-171.757a4.014 4.014 0 0 0-4.013-4.014H4.013A4.014 4.014 0 0 0 0-171.757v8.387h60z" transform="translate(0 175.771)"/>
    <g id="Group_2381" transform="translate(0 175.771)">
        <path id="Path_965" d="M40.812-117.645a3.691 3.691 0 0 1-3.687-3.688v-11.079h-.006v-.322c0-.132.019-.36.035-.509a1.012 1.012 0 0 1 .981-.771h5.355a.96.96 0 0 1 .975.719c.021.179.028.633.032.878v.158c.005.277 0 1.111 0 1.111v9.815a3.691 3.691 0 0 1-3.685 3.688z" class="cls-3"/>
        <path id="Path_966" d="M38.393-151.878v-4.935h4.838v4.935a2.355 2.355 0 0 1-2.419 2.427 2.5 2.5 0 0 1-2.419-2.427z" class="cls-4"/>
        <path id="Line_97" d="M0 0L0 15.22" class="cls-4" transform="translate(40.812 -149.332)"/>
    </g>
    <g id="Group_2382" transform="translate(0 175.771)">
        <path id="Path_967" d="M19.474-142.776l-.024.014v16.824l-.259.341a4.982 4.982 0 0 0-1.01 3 4.962 4.962 0 0 0 4.956 4.956 4.961 4.961 0 0 0 4.956-4.956 4.986 4.986 0 0 0-1.009-3l-.259-.341v-16.824c-.007-.006-.016-.01-.022-.015a7.6 7.6 0 0 1-3.666.94 7.6 7.6 0 0 1-3.663-.939z" class="cls-3"/>
        <g id="Path_968" fill="#fff" stroke-linecap="round" stroke-linejoin="round">
            <path d="M23.137-140.837c-1.43 0-2.851-.361-4.111-1.044l-.576-.264v-.12l-.121-.08c-.813-.54-1.528-1.21-2.126-1.992l-.004-.006-.005-.006c-.016-.023-.034-.045-.051-.067-.044-.058-.094-.122-.145-.198l-.04-.059.003.004-.004-.005-.003-.005c-.953-1.424-1.456-3.083-1.456-4.797 0-1.75.521-3.435 1.507-4.873.96-1.402 2.298-2.482 3.869-3.124l1.378-.563v6.874c0 1.04.846 1.886 1.885 1.886 1.04 0 1.886-.846 1.886-1.886v-6.874l1.378.563c1.57.642 2.908 1.722 3.869 3.124.985 1.438 1.506 3.123 1.506 4.873 0 1.718-.505 3.38-1.46 4.805l-.002.004-.003.004-.024.035c-.066.098-.133.185-.192.261l-.063.082-.005.007-.005.007c-.589.754-1.287 1.402-2.076 1.926l-.121.08v.122l-.575.261c-1.26.684-2.682 1.045-4.113 1.045z" class="cls-8"/>
            <path fill="#b4b4b4" d="M20.252-156.547c-2.788 1.139-4.754 3.873-4.754 7.071 0 1.569.475 3.027 1.287 4.241.011.016.021.033.033.049.056.084.12.161.18.242.518.678 1.149 1.278 1.884 1.766l.568.377v.014l.024.011c1.088.596 2.335.939 3.663.939 1.329 0 2.577-.343 3.666-.94l.022-.01v-.014l.568-.377c.714-.474 1.33-1.054 1.84-1.708.076-.101.156-.199.227-.304l.026-.038c.814-1.215 1.29-2.676 1.29-4.248 0-3.198-1.966-5.932-4.753-7.071v5.385c0 1.591-1.295 2.886-2.886 2.886-1.591 0-2.885-1.295-2.885-2.886v-5.385m5.771-2c.256 0 .513.049.757.149 1.75.715 3.243 1.92 4.314 3.484 1.1 1.605 1.682 3.486 1.682 5.438 0 1.917-.563 3.771-1.628 5.361l-.011.016-.024.035c-.083.122-.162.225-.226.308l-.056.073-.02.027c-.655.84-1.433 1.56-2.312 2.144l-.394.262c-.12.1-.254.187-.398.258-1.402.756-2.98 1.155-4.57 1.155-1.588 0-3.166-.399-4.566-1.154-.146-.07-.28-.158-.4-.259l-.395-.262c-.906-.601-1.702-1.347-2.367-2.218l-.018-.023-.04-.053c-.047-.06-.109-.14-.175-.238-.025-.035-.043-.063-.054-.08-1.062-1.589-1.624-3.44-1.624-5.352 0-1.952.582-3.833 1.682-5.438 1.071-1.564 2.564-2.769 4.316-3.484.243-.1.5-.149.756-.149.392 0 .78.115 1.115.34.553.371.885.994.885 1.66v5.385c0 .489.397.886.885.886.489 0 .886-.397.886-.886v-5.385c0-.666.332-1.289.885-1.66.334-.225.724-.34 1.115-.34z"/>
        </g>
    </g>
    <circle id="Ellipse_137" cx="1.554" cy="1.554" r="1.554" fill="#b4b4b4" transform="translate(21.583 51.626)"/>
    <g id="Group_2383" transform="translate(0 175.771)">
        <circle id="Ellipse_138" cx="1.984" cy="1.984" r="1.984" class="cls-7" transform="translate(7.396 -171.554)"/>
        <circle id="Ellipse_139" cx="1.984" cy="1.984" r="1.984" class="cls-7" transform="translate(13.845 -171.554)"/>
        <circle id="Ellipse_140" cx="1.984" cy="1.984" r="1.984" class="cls-7" transform="translate(20.295 -171.554)"/>
    </g>
</svg>
