<svg xmlns="http://www.w3.org/2000/svg" width="42" height="42" viewBox="0 0 42 42">
    <path fill="#b4b4b4" d="M21 0A21 21 0 1 1 0 21 21 21 0 0 1 21 0z" opacity="0.3" transform="rotate(-90 21 21)"/>
    <g>
        <path fill="none" d="M0 0h24v24H0z" transform="translate(9 9)"/>
        <path fill="#595758" d="M6.111 20.778A2.229 2.229 0 0 0 8.333 23h8.889a2.229 2.229 0 0 0 2.222-2.222V7.444H6.111zM20.556 4.111h-3.889L15.556 3H10L8.889 4.111H5v2.222h15.556z" transform="translate(9 9) translate(-.778 -1)"/>
    </g>
</svg>
