<svg id="圖層_1" data-name="圖層 1" xmlns="http://www.w3.org/2000/svg" viewBox="0 0 300 227"><defs><style>.cls-1{fill:#80bc00}</style></defs><path class="cls-1" d="M146.36 120.87a40.16 40.16 0 0 0 17.49-4 10 10 0 1 0 14.33-11.6 40.3 40.3 0 1 0-31.82 15.58Zm0-76.28a8.06 8.06 0 1 1-8.06 8.06 8.06 8.06 0 0 1 8.06-8.06Zm0 19.75a16.13 16.13 0 1 1-16.12 16.13 16.13 16.13 0 0 1 16.12-16.13ZM133.5 141.59a15.65 15.65 0 0 1 1.91-1 12.82 12.82 0 0 0-1.91 1Z"/><path class="cls-1" d="M209.87 138.48h-62.49a29.41 29.41 0 0 0-12 2.17 17.18 17.18 0 0 0-1.91 1 12.88 12.88 0 0 0-6 10.87c0 2.85 1.24 9.76 10.39 12.62 2.36.74 4.69 1.6 6.9 2.11 3.51.81 7.16 1.42 8.75 3.14a3.78 3.78 0 0 1-.67 5.87c-1 .67-2.64 1.2-5.75 1.2H112.4l-5.57 9.67h45.54A13.36 13.36 0 0 0 166 173.52c-.31-9.34-7.73-12.89-14.38-14.74-.88-.24-1.74-.46-2.57-.65a47.36 47.36 0 0 1-8-2.55 3.72 3.72 0 0 1 .14-6.69c1-.44 1.94-.64 4.62-.71h25.56v38.91h10v-38.91h23ZM100.79 138.41l-19.83 34.5-13.65-23.65h7.38l6.33-10.85H48.74l28.04 48.72h8.36l28.04-48.72h-12.39zM229.33 187.13h21.41l-28.13-48.72h-8.18l-11.37 19.69-3.82 6.61v.01l-12.94 22.41h12.39l6.75-11.68 6.74 11.68h11.75l-12.62-21.85 7.21-12.5 13.66 23.65h-9.03l6.18 10.7zM117.72 138.41l-28.3 48.72h13.11l28.3-48.72h-13.11z"/></svg>