<svg xmlns="http://www.w3.org/2000/svg" width="42" height="42" viewBox="0 0 42 42">
    <g>
        <rect width="42" height="42" fill="#80bc00" rx="21"/>
    </g>
    <path fill="#fff" d="M29.059 15.854c-.431-.133-1.028-.315-1.724-.464a.614.614 0 0 1-.3-.133c-.017-.017-.05-.033-.066-.05a.886.886 0 0 1-.315-.431 9.288 9.288 0 0 0-.547-1.326.842.842 0 0 1-.083-.53l.05-.2a.762.762 0 0 1 .116-.265c.365-.58.663-1.11.862-1.492a.907.907 0 0 0-.165-1.063l-.249-.232-.928-.928-.249-.232a.908.908 0 0 0-1.061-.163c-.4.2-.945.514-1.542.878a1.178 1.178 0 0 1-.3.133c-.033 0-.05.017-.083.017a.842.842 0 0 1-.531-.083 9.293 9.293 0 0 0-1.326-.547.759.759 0 0 1-.431-.315c-.033-.05-.083-.116-.116-.166a.732.732 0 0 1-.1-.265c-.149-.663-.332-1.243-.448-1.657a.89.89 0 0 0-.862-.63h-1.986a.89.89 0 0 0-.862.63 17.246 17.246 0 0 0-.464 1.691.614.614 0 0 1-.133.3c-.017.017-.033.05-.05.066a.886.886 0 0 1-.431.315 9.293 9.293 0 0 0-1.326.547.842.842 0 0 1-.531.083.619.619 0 0 1-.2-.033.762.762 0 0 1-.265-.116c-.58-.365-1.111-.663-1.492-.862a.929.929 0 0 0-1.061.182l-.232.232-.945.928-.231.227a.907.907 0 0 0-.166 1.061c.2.4.514.945.879 1.541a.754.754 0 0 1 .133.315c0 .033.017.05.017.083a.841.841 0 0 1-.083.53 9.288 9.288 0 0 0-.547 1.326.759.759 0 0 1-.315.431c-.05.033-.116.083-.166.116a.733.733 0 0 1-.265.1c-.663.149-1.243.331-1.658.448a.89.89 0 0 0-.63.862V18.7a.89.89 0 0 0 .63.862c.431.133 1.028.315 1.724.464a.614.614 0 0 1 .3.133c.017.017.05.033.066.05a.886.886 0 0 1 .315.431 9.288 9.288 0 0 0 .547 1.326.842.842 0 0 1 .083.53l-.05.2a.761.761 0 0 1-.116.265c-.365.58-.663 1.11-.862 1.492a.907.907 0 0 0 .166 1.061l.232.232.928.928.232.232a.908.908 0 0 0 1.061.166c.4-.2.945-.514 1.542-.878a1.178 1.178 0 0 1 .3-.133c.033 0 .05-.017.083-.017a.842.842 0 0 1 .531.083 9.293 9.293 0 0 0 1.326.547.759.759 0 0 1 .431.315c.033.05.083.116.116.166a.732.732 0 0 1 .1.265c.149.663.332 1.243.448 1.657a.89.89 0 0 0 .862.63h1.989a.89.89 0 0 0 .862-.63c.133-.431.315-1.028.464-1.724a.614.614 0 0 1 .133-.3c.017-.017.033-.05.05-.066a.886.886 0 0 1 .431-.315 9.293 9.293 0 0 0 1.325-.542.842.842 0 0 1 .531-.083l.2.05a.762.762 0 0 1 .265.116c.58.365 1.111.663 1.492.862a.908.908 0 0 0 1.061-.166l.232-.232.928-.928.232-.232A.907.907 0 0 0 27 24.456c-.2-.4-.514-.945-.879-1.541a1.177 1.177 0 0 1-.133-.3c0-.033-.017-.05-.017-.083a.842.842 0 0 1 .083-.53 9.289 9.289 0 0 0 .547-1.326.759.759 0 0 1 .315-.431c.05-.033.116-.083.166-.116a.733.733 0 0 1 .265-.1c.663-.149 1.243-.331 1.658-.448a.89.89 0 0 0 .63-.862v-1.987a.814.814 0 0 0-.576-.878zM17.653 23.18a5.47 5.47 0 1 1 5.471-5.47 5.476 5.476 0 0 1-5.471 5.47z" transform="translate(3.35 3.29)"/>
</svg>
