<svg xmlns="http://www.w3.org/2000/svg" width="42" height="42" viewBox="0 0 42 42">
    <g>
        <path fill="#ddd" d="M21 0A21 21 0 1 1 0 21 21 21 0 0 1 21 0z"/>
        <path fill="#595758" d="M21.5 13.175a12 12 0 1 0 12 12 12 12 0 0 0-12-12zm-9.6 12a9.6 9.6 0 0 1 9.6-9.6 9.483 9.483 0 0 1 5.88 2.025L13.928 31.055a9.483 9.483 0 0 1-2.028-5.88zm9.6 9.6a9.483 9.483 0 0 1-5.88-2.028l13.452-13.452a9.483 9.483 0 0 1 2.028 5.88 9.6 9.6 0 0 1-9.6 9.6z" opacity="0.2" transform="translate(-.5 -4.175)"/>
    </g>
</svg>
