<svg id="terminal_active_restart" xmlns="http://www.w3.org/2000/svg" width="24" height="24" viewBox="0 0 24 24">
  <defs>
    <style>
      .cls-1 {
        fill: none;
      }

      .cls-2 {
        fill: #595758;
      }

      .cls-3 {
        fill: #dc3545;
      }

      .cls-4 {
        fill: #fff;
      }
    </style>
  </defs>
  <path id="Path_128" data-name="Path 128" class="cls-1" d="M0,0H24V24H0Z"/>
  <path id="Path_534" data-name="Path 534" class="cls-2" d="M19,6.5H5a4.012,4.012,0,0,0-4,4v2a4.012,4.012,0,0,0,4,4H19a4.012,4.012,0,0,0,4-4v-2A4.012,4.012,0,0,0,19,6.5ZM8.853,14H4.519V12H8.853Zm0-3H4.519V9H8.853Zm3.674,2.3a1.8,1.8,0,1,1,1.8-1.8A1.8,1.8,0,0,1,12.527,13.3ZM18,13.3a1.8,1.8,0,1,1,1.8-1.8A1.8,1.8,0,0,1,18,13.3Z" transform="translate(0 6.5)"/>
  <g id="Component_134_9" data-name="Component 134 – 9" transform="translate(5 1)">
    <path id="Path_598" data-name="Path 598" class="cls-1" d="M7.5,11.175h13v13H7.5Z" transform="translate(-7.5 -11.175)"/>
  </g>
  <g id="Group_1583" data-name="Group 1583">
    <path id="Path_653" data-name="Path 653" class="cls-3" d="M7,0A7,7,0,1,1,0,7,7,7,0,0,1,7,0Z" transform="translate(5 1)"/>
    <path id="Path_1329" data-name="Path 1329" class="cls-4" d="M13,5.806,12.194,5,9,8.194,5.806,5,5,5.806,8.194,9,5,12.194,5.806,13,9,9.806,12.194,13,13,12.194,9.806,9Z" transform="translate(3 -1)"/>
  </g>
</svg>
