<svg id="menu_terminal" xmlns="http://www.w3.org/2000/svg" width="40" height="40" viewBox="0 0 40 40">
  <defs>
    <style>
      .cls-1 {
        fill: #fff;
      }
    </style>
  </defs>
  <path id="Path_1163" data-name="Path 1163" class="cls-1" d="M32.727,0H7.273A7.266,7.266,0,0,0,0,7.215v3.607a7.266,7.266,0,0,0,7.273,7.215H32.727A7.266,7.266,0,0,0,40,10.822V7.215A7.266,7.266,0,0,0,32.727,0ZM14.111,13.928h-8V9.92h8Zm0-6.029h-8V3.891h8Zm7,4.125a3.006,3.006,0,1,1,3-3.006A3,3,0,0,1,21.111,12.024Zm10,0a3.006,3.006,0,1,1,3-3.006A3,3,0,0,1,31.111,12.024Z"/>
  <path id="Path_1164" data-name="Path 1164" class="cls-1" d="M32.727,21.963H7.273A7.266,7.266,0,0,0,0,29.178v3.607A7.266,7.266,0,0,0,7.273,40H32.727A7.266,7.266,0,0,0,40,32.785V29.178A7.266,7.266,0,0,0,32.727,21.963ZM14.111,35.892h-8V31.884h8Zm0-6.029h-8V25.855h8Zm7,4.125a3.006,3.006,0,1,1,3-3.006A3,3,0,0,1,21.111,33.988Zm10,0a3.006,3.006,0,1,1,3-3.006A3,3,0,0,1,31.111,33.988Z"/>
</svg>
