<svg id="Component_105_64" data-name="Component 105 – 64" xmlns="http://www.w3.org/2000/svg" width="24" height="24" viewBox="0 0 24 24">
  <defs>
    <style>
      .cls-1 {
        fill: #595758;
      }

      .cls-2 {
        fill: none;
      }

      .cls-3 {
        fill: #dc3545;
      }

      .cls-4 {
        fill: #fff;
      }

      .cls-5, .cls-6 {
        stroke: none;
      }

      .cls-6 {
        fill: #fff;
      }
    </style>
  </defs>
  <g id="icons_application_24" transform="translate(0.33 0.5)">
    <path id="Path_290" data-name="Path 290" class="cls-1" d="M20.33,2.5H3.67a2,2,0,0,0-2,2V17.9a2,2,0,0,0,2,2H20.33a2,2,0,0,0,2-2V4.5A2,2,0,0,0,20.33,2.5ZM9.56,4A1.28,1.28,0,1,1,8.28,5.23,1.28,1.28,0,0,1,9.56,4ZM5.41,4A1.28,1.28,0,1,1,4.13,5.28,1.28,1.28,0,0,1,5.41,4ZM20.33,18H3.67V8.06H20.33Z"/>
    <rect id="Rectangle_236" data-name="Rectangle 236" class="cls-1" width="12.29" height="2" transform="translate(5.71 10.5)"/>
    <rect id="Rectangle_237" data-name="Rectangle 237" class="cls-1" width="12.29" height="2" transform="translate(5.71 13.5)"/>
  </g>
  <path id="Path_292" data-name="Path 292" class="cls-2" d="M0,0H24V24H0Z"/>
  <g id="Group_4842" data-name="Group 4842" transform="translate(5 9)">
    <g id="Path_653" data-name="Path 653" class="cls-3" transform="translate(5 1)">
      <path class="cls-5" d="M 7.000000476837158 13.5 C 3.415890455245972 13.5 0.5000004768371582 10.58411026000977 0.5000004768371582 7.000000476837158 C 0.5000004768371582 3.415890455245972 3.415890455245972 0.5000004768371582 7.000000476837158 0.5000004768371582 C 10.58411026000977 0.5000004768371582 13.5 3.415890455245972 13.5 7.000000476837158 C 13.5 10.58411026000977 10.58411026000977 13.5 7.000000476837158 13.5 Z"/>
      <path class="cls-6" d="M 7.000000476837158 1.000000953674316 C 3.691590309143066 1.000000953674316 1.000000953674316 3.691590309143066 1.000000953674316 7.000000476837158 C 1.000000953674316 10.30841064453125 3.691590309143066 13 7.000000476837158 13 C 10.30841064453125 13 13 10.30841064453125 13 7.000000476837158 C 13 3.691590309143066 10.30841064453125 1.000000953674316 7.000000476837158 1.000000953674316 M 7.000000476837158 9.5367431640625e-07 C 10.86599063873291 9.5367431640625e-07 14 3.134010314941406 14 7.000000476837158 C 14 10.86599063873291 10.86599063873291 14 7.000000476837158 14 C 3.134010314941406 14 9.5367431640625e-07 10.86599063873291 9.5367431640625e-07 7.000000476837158 C 9.5367431640625e-07 3.134010314941406 3.134010314941406 9.5367431640625e-07 7.000000476837158 9.5367431640625e-07 Z"/>
    </g>
    <path id="Path_1329" data-name="Path 1329" class="cls-4" d="M11,5.6,10.4,5,8,7.4,5.6,5,5,5.6,7.4,8,5,10.4l.6.6L8,8.6,10.4,11l.6-.6L8.6,8Z" transform="translate(4)"/>
  </g>
</svg>
