<svg width="24" height="24" viewBox="0 0 24 24" fill="none" xmlns="http://www.w3.org/2000/svg">
<path d="M19 13H5C3.94011 13.0032 2.92453 13.4256 2.17507 14.1751C1.42561 14.9245 1.00317 15.9401 1 17V19C1.00317 20.0599 1.42561 21.0755 2.17507 21.8249C2.92453 22.5744 3.94011 22.9968 5 23H19C20.0599 22.9968 21.0755 22.5744 21.8249 21.8249C22.5744 21.0755 22.9968 20.0599 23 19V17C22.9968 15.9401 22.5744 14.9245 21.8249 14.1751C21.0755 13.4256 20.0599 13.0032 19 13ZM8.853 20.5H4.519V18.5H8.853V20.5ZM8.853 17.5H4.519V15.5H8.853V17.5ZM12.527 19.8C12.171 19.8 11.823 19.6944 11.527 19.4966C11.231 19.2989 11.0003 19.0177 10.864 18.6888C10.7278 18.3599 10.6921 17.998 10.7616 17.6488C10.831 17.2997 11.0025 16.9789 11.2542 16.7272C11.5059 16.4755 11.8267 16.304 12.1758 16.2346C12.525 16.1651 12.8869 16.2008 13.2158 16.337C13.5447 16.4733 13.8259 16.704 14.0236 17C14.2214 17.296 14.327 17.644 14.327 18C14.327 18.2364 14.2804 18.4704 14.19 18.6888C14.0995 18.9072 13.9669 19.1056 13.7998 19.2728C13.6326 19.4399 13.4342 19.5725 13.2158 19.663C12.9974 19.7534 12.7634 19.8 12.527 19.8ZM18 19.8C17.644 19.8 17.296 19.6944 17 19.4966C16.704 19.2989 16.4733 19.0177 16.337 18.6888C16.2008 18.3599 16.1651 17.998 16.2346 17.6488C16.304 17.2997 16.4755 16.9789 16.7272 16.7272C16.9789 16.4755 17.2997 16.304 17.6488 16.2346C17.998 16.1651 18.3599 16.2008 18.6888 16.337C19.0177 16.4733 19.2989 16.704 19.4966 17C19.6944 17.296 19.8 17.644 19.8 18C19.8 18.4774 19.6104 18.9352 19.2728 19.2728C18.9352 19.6104 18.4774 19.8 18 19.8Z" fill="#DC3545"/>
<path d="M8 1C9.38447 1 10.7378 1.41054 11.889 2.17971C13.0401 2.94888 13.9373 4.04213 14.4672 5.32122C14.997 6.6003 15.1356 8.00777 14.8655 9.36563C14.5954 10.7235 13.9287 11.9708 12.9497 12.9497C11.9708 13.9287 10.7235 14.5954 9.36563 14.8655C8.00777 15.1356 6.6003 14.997 5.32122 14.4672C4.04213 13.9373 2.94888 13.0401 2.17971 11.889C1.41054 10.7378 1 9.38447 1 8C1 6.14348 1.7375 4.36301 3.05025 3.05025C4.36301 1.7375 6.14348 1 8 1V1Z" fill="#DC3545"/>
<path d="M8 3C7.0111 3 6.0444 3.29324 5.22215 3.84265C4.39991 4.39206 3.75904 5.17295 3.3806 6.08658C3.00217 7.00021 2.90315 8.00555 3.09608 8.97545C3.289 9.94536 3.76521 10.8363 4.46447 11.5355C5.16373 12.2348 6.05465 12.711 7.02455 12.9039C7.99446 13.0969 8.99979 12.9978 9.91342 12.6194C10.8271 12.241 11.6079 11.6001 12.1574 10.7779C12.7068 9.9556 13 8.98891 13 8C13 6.67392 12.4732 5.40215 11.5355 4.46447C10.5979 3.52678 9.32609 3 8 3V3ZM4 8C4 6.93913 4.42143 5.92172 5.17158 5.17157C5.92172 4.42143 6.93914 4 8 4C8.88845 3.99819 9.75157 4.29588 10.45 4.845L4.845 10.45C4.29589 9.75157 3.9982 8.88844 4 8ZM8 12C7.11156 12.0018 6.24844 11.7041 5.55 11.155L11.15 5.55C11.6991 6.24843 11.9968 7.11155 11.995 8C11.995 9.06 11.5743 10.0767 10.8252 10.8267C10.0761 11.5767 9.06 11.9987 8 12Z" fill="white"/>
<path d="M16 1C17.3845 1 18.7378 1.41054 19.889 2.17971C21.0401 2.94888 21.9373 4.04213 22.4672 5.32122C22.997 6.6003 23.1356 8.00777 22.8655 9.36563C22.5954 10.7235 21.9287 11.9708 20.9497 12.9497C19.9708 13.9287 18.7235 14.5954 17.3656 14.8655C16.0078 15.1356 14.6003 14.997 13.3212 14.4672C12.0421 13.9373 10.9489 13.0401 10.1797 11.889C9.41054 10.7378 9 9.38447 9 8C9 6.14348 9.7375 4.36301 11.0503 3.05025C12.363 1.7375 14.1435 1 16 1V1Z" fill="#FF9E18"/>
<path d="M15 12C15 11.8022 15.0586 11.6089 15.1685 11.4445C15.2784 11.28 15.4346 11.1519 15.6173 11.0762C15.8 11.0005 16.0011 10.9806 16.1951 11.0192C16.3891 11.0578 16.5673 11.153 16.7071 11.2928C16.847 11.4327 16.9422 11.611 16.9808 11.8049C17.0194 11.9989 16.9996 12.2 16.9239 12.3827C16.8482 12.5654 16.72 12.7215 16.5556 12.8314C16.3911 12.9413 16.1978 13 16 13C15.7348 13 15.4804 12.8947 15.2929 12.7072C15.1054 12.5196 15 12.2652 15 12ZM15 9V4H17V9H15Z" fill="white"/>
</svg>
