<svg id="table_rds_no_access_disable" xmlns="http://www.w3.org/2000/svg" width="24" height="24" viewBox="0 0 24 24">
  <defs>
    <style>
      .cls-1 {
        fill: #dc3545;
      }

      .cls-2 {
        fill: none;
      }

      .cls-3 {
        fill: #b4b4b4;
        stroke: rgba(0,0,0,0);
        stroke-miterlimit: 10;
      }

      .cls-4 {
        fill: #fff;
      }
    </style>
  </defs>
  <path id="Path_1333" data-name="Path 1333" class="cls-1" d="M6,0a6,6,0,0,1,6,6,6.117,6.117,0,0,1-2.344,4.758A5.792,5.792,0,0,1,6,12,6,6,0,0,1,6,0Z" transform="translate(10.962 10.962)"/>
  <path id="Path_87" data-name="Path 87" class="cls-2" d="M0,0H24V24H0Z"/>
  <g id="Group_1092" data-name="Group 1092" transform="translate(-1164 -768)">
    <path id="Subtraction_23" data-name="Subtraction 23" class="cls-3" d="M2693.1,6473.022h-10.192a1,1,0,0,1,0-2h8.765a7,7,0,0,0,1.425,2Zm-1.812-3H2685a3,3,0,0,1-3-3v-10a3,3,0,0,1,3-3h16a3,3,0,0,1,3,3v7.391a7.085,7.085,0,0,0-2-2.136v-5.255a1,1,0,0,0-1-1h-16a1,1,0,0,0-1,1v10a1,1,0,0,0,1,1h6a7.005,7.005,0,0,0,.29,2Zm-.044-3.843h-2.119a2.625,2.625,0,0,1,0-5.25,1.3,1.3,0,0,1,.182.017h.005l.083.011a3.965,3.965,0,0,1,7.76.117,6.962,6.962,0,0,0-5.91,5.1Z" transform="translate(-1517.001 -5683.022)"/>
  </g>
  <g id="Group_4837" data-name="Group 4837" transform="translate(5 9)">
    <g id="disable_icon" transform="translate(8 4)">
      <path id="Path_599" data-name="Path 599" class="cls-4" d="M13.5,13.175a4,4,0,1,0,4,4A4,4,0,0,0,13.5,13.175Zm-3.2,4a3.2,3.2,0,0,1,3.2-3.2,3.161,3.161,0,0,1,1.96.676l-4.484,4.484A3.161,3.161,0,0,1,10.3,17.175Zm3.2,3.2a3.161,3.161,0,0,1-1.96-.676l4.484-4.484a3.161,3.161,0,0,1,.676,1.96A3.2,3.2,0,0,1,13.5,20.375Z" transform="translate(-9.5 -13.175)"/>
    </g>
  </g>
</svg>
