<?xml version="1.0" encoding="utf-8"?>
<!-- Generator: Adobe Illustrator 24.2.3, SVG Export Plug-In . SVG Version: 6.00 Build 0)  -->
<svg version="1.1" id="圖層_1" xmlns="http://www.w3.org/2000/svg" xmlns:xlink="http://www.w3.org/1999/xlink" x="0px" y="0px"
	 viewBox="0 0 9.75 9.72" style="enable-background:new 0 0 9.75 9.72;" xml:space="preserve">
<style type="text/css">
	.st0{fill:#36BAC3;}
	.st1{fill:#80BC00;}
</style>
<path class="st0" d="M393.82,417.77h-0.11v-0.02v-3.83c0-0.85-0.69-1.54-1.54-1.54h-4.16c-0.85,0-1.54,0.69-1.54,1.54v2.07h0.92
	v-1.71c0-0.46,0.37-0.84,0.84-0.84h3.72c0.46,0,0.84,0.37,0.84,0.84v3.48v0.02h-6.42c-1.07,0-1.69,0.87-1.69,1.94v6.21
	c0,1.07,0.37,1.94,1.44,1.94h7.94c1.07,0,1.44-0.87,1.44-1.94v-6.21C395.51,418.64,394.89,417.77,393.82,417.77z M390.79,422.68
	v2.17c0,0.38-0.31,0.69-0.69,0.69v0c-0.32,0-0.69-0.31-0.69-0.69v-2.17c-0.4-0.24-0.68-0.68-0.68-1.18c0-0.76,0.61-1.37,1.37-1.37
	s1.37,0.61,1.37,1.37C391.46,422,391.19,422.44,390.79,422.68z"/>
<g>
	<path class="st1" d="M4.23,6.59c-0.05,0-0.11-0.02-0.14-0.06L2.88,5.32c-0.08-0.08-0.08-0.21,0-0.29C2.91,5,2.97,4.98,3.02,4.98
		c0.05,0,0.11,0.02,0.14,0.06l1,1c0.02,0.02,0.04,0.03,0.07,0.03c0.03,0,0.05-0.01,0.07-0.03l2.21-2.21
		C6.55,3.79,6.6,3.76,6.65,3.76c0.05,0,0.11,0.02,0.14,0.06c0.08,0.08,0.08,0.21,0,0.29L4.38,6.53C4.34,6.57,4.29,6.59,4.23,6.59z"
		/>
</g>
<path class="st1" d="M9.12,6.92c0.02-0.05,0.04-0.09,0.06-0.14C9.2,6.75,9.21,6.72,9.22,6.69C9.23,6.66,9.25,6.63,9.26,6.6
	c0.02-0.05,0.04-0.09,0.05-0.14c0-0.01,0.01-0.03,0.01-0.04c0.17-0.48,0.26-1,0.26-1.54c0-0.21-0.01-0.43-0.04-0.63
	C9.49,3.88,9.4,3.51,9.27,3.17C9.18,2.94,9.07,2.72,8.95,2.51c0,0-0.01-0.01-0.01-0.01c-0.2-0.35-0.45-0.68-0.75-0.98
	c-0.3-0.3-0.63-0.55-0.98-0.75c0,0-0.01,0-0.01-0.01C6.49,0.35,5.67,0.13,4.84,0.13c-0.54,0-1.06,0.09-1.54,0.26
	c-0.01,0-0.03,0.01-0.04,0.01C3.21,0.42,3.16,0.44,3.11,0.46C3.08,0.47,3.05,0.48,3.02,0.49C2.99,0.5,2.96,0.52,2.93,0.53
	C2.89,0.55,2.84,0.57,2.79,0.59C2.78,0.6,2.77,0.61,2.75,0.61C2.29,0.84,1.86,1.14,1.48,1.52C1.1,1.9,0.8,2.33,0.57,2.79
	C0.57,2.81,0.56,2.82,0.55,2.83C0.53,2.88,0.51,2.92,0.49,2.97C0.48,3,0.46,3.03,0.45,3.06C0.44,3.09,0.43,3.12,0.42,3.15
	C0.4,3.2,0.38,3.24,0.36,3.29c0,0.01-0.01,0.03-0.01,0.04c-0.17,0.48-0.26,1-0.26,1.54c0,0.54,0.09,1.06,0.26,1.54
	c0,0.01,0.01,0.03,0.01,0.04C0.38,6.51,0.4,6.55,0.42,6.6c0.01,0.03,0.02,0.06,0.04,0.09c0.01,0.03,0.03,0.06,0.04,0.09
	c0.02,0.05,0.04,0.09,0.06,0.14c0.01,0.01,0.01,0.03,0.02,0.04C0.8,7.42,1.1,7.85,1.48,8.23c0.15,0.15,0.31,0.29,0.48,0.42
	c0.29,0.23,0.61,0.42,0.95,0.56C3.14,9.32,3.37,9.4,3.6,9.46c0,0,0.01,0,0.01,0c0.39,0.1,0.8,0.16,1.22,0.16
	c0.42,0,0.83-0.06,1.22-0.16c0,0,0.01,0,0.01,0c0.8-0.21,1.53-0.64,2.12-1.23C8.58,7.85,8.88,7.42,9.1,6.96
	C9.11,6.95,9.11,6.93,9.12,6.92z M0.94,6.78C0.93,6.77,0.93,6.76,0.92,6.74C0.9,6.7,0.88,6.66,0.86,6.62
	C0.85,6.59,0.84,6.56,0.83,6.54C0.82,6.51,0.81,6.48,0.8,6.45C0.78,6.41,0.76,6.37,0.75,6.32c0-0.01-0.01-0.03-0.01-0.04
	c-0.31-0.91-0.31-1.91,0-2.82c0-0.01,0.01-0.03,0.01-0.04C0.76,3.38,0.78,3.34,0.8,3.3c0.01-0.03,0.02-0.06,0.03-0.08
	c0.01-0.03,0.02-0.05,0.04-0.08C0.88,3.09,0.9,3.05,0.92,3.01C0.93,3,0.93,2.98,0.94,2.97c0.42-0.87,1.13-1.57,1.99-2
	c0.01-0.01,0.02-0.01,0.04-0.02C3.01,0.94,3.05,0.92,3.09,0.9c0.03-0.01,0.05-0.02,0.08-0.04C3.2,0.86,3.23,0.85,3.26,0.83
	C3.3,0.82,3.35,0.8,3.39,0.79c0.01,0,0.03-0.01,0.04-0.01C4.95,0.25,6.7,0.6,7.91,1.81c1.21,1.21,1.55,2.96,1.03,4.48
	c0,0.01-0.01,0.03-0.01,0.04C8.91,6.37,8.9,6.41,8.88,6.45C8.87,6.48,8.86,6.51,8.85,6.54C8.84,6.56,8.82,6.59,8.81,6.62
	C8.79,6.66,8.77,6.7,8.75,6.74C8.75,6.76,8.74,6.77,8.74,6.78c-0.71,1.44-2.19,2.44-3.9,2.44C3.13,9.22,1.64,8.22,0.94,6.78z"/>
</svg>
