<svg id="add_group" xmlns="http://www.w3.org/2000/svg" width="42" height="42" viewBox="0 0 42 42">
  <g id="Group_1105" data-name="Group 1105">
    <rect id="round" width="42" height="42" rx="21" fill="#ddd"/>
  </g>
  <path id="Path_694" data-name="Path 694" d="M33.312,15.971H31.269V14.547A2.47,2.47,0,0,0,28.8,12.08H21.683c-.394-.545-1.081-1.5-1.268-1.772a3.91,3.91,0,0,0-3.578-1.794H9.688A2.47,2.47,0,0,0,7.22,10.981V28.224a2.471,2.471,0,0,0,2.468,2.468H28.809l-.007.017c.162-.008.29-.04.435-.06.025-.005.05-.005.075-.011a2.647,2.647,0,0,0,2.394-1.846l-.007,0a1.953,1.953,0,0,0,.071-.212l2.664-10.968A1.212,1.212,0,0,0,33.312,15.971Zm-6.789,8.415h-4l-1.046,4h-2l1.046-4h-4l.523-2h4l1.047-4h2l-1.047,4h4Zm2.852-8.414-16.78,0a2.16,2.16,0,0,0-1.92,1.644l-1.56,6.421V10.981a.58.58,0,0,1,.573-.572h7.149a2.035,2.035,0,0,1,2.014.969c.273.4,1.582,2.2,1.582,2.2a.946.946,0,0,0,.767.391h7.6a.582.582,0,0,1,.574.573Z" transform="translate(0.78 1.486)" fill="#595758"/>
</svg>
