<svg xmlns="http://www.w3.org/2000/svg" id="icon_service_package" width="60" height="60" viewBox="0 0 60 60">
    <defs>
        <style>
            .cls-2{stroke:#b4b4b4;stroke-width:2px;stroke-linecap:round;stroke-linejoin:round;fill:none}.cls-6{stroke:none}
        </style>
    </defs>
    <g id="Rectangle_478" fill="#fff" stroke="#b4b4b4" stroke-linecap="round" stroke-linejoin="round" stroke-width="2px" transform="translate(0 9)">
        <rect width="60" height="42" class="cls-6" rx="5.351"/>
        <rect width="58" height="40" x="1" y="1" fill="none" rx="4.351"/>
    </g>
    <path id="Line_98" d="M0 0L24.452 0" class="cls-2" transform="translate(1.625 42.018)"/>
    <path id="Line_99" d="M0 0L24.452 0" class="cls-2" transform="translate(33.859 42.018)"/>
    <g id="Path_969" fill="#fff" stroke-linecap="round" stroke-linejoin="round">
        <path d="M37.974-32.167H21.167c.25-.267.506-.564.762-.892 1.226-1.576 2.67-4.198 2.891-7.969H34.321c.221 3.77 1.665 6.393 2.891 7.969.256.328.512.625.762.892z" class="cls-6" transform="translate(.016 91.167)"/>
        <path fill="#b4b4b4" d="M25.74-40.028c-.33 2.944-1.358 5.201-2.493 6.861h12.647c-1.135-1.66-2.164-3.917-2.493-6.861H25.74m-1.891-2H35.292c0 7.797 5.419 10.861 5.419 10.861H18.43s5.419-3.064 5.419-10.861z" transform="translate(.016 91.167)"/>
    </g>
    <path id="Path_970" fill="#80bc00" d="M43.762-70.827a13.682 13.682 0 0 0 .116-1.814 11.2 11.2 0 0 0-.135-1.814L47.66-77.5a.946.946 0 0 0 .232-1.177l-3.7-6.407a.943.943 0 0 0-1.139-.425l-4.617 1.849a13.652 13.652 0 0 0-3.126-1.814l-.695-4.9a.933.933 0 0 0-.926-.792h-7.41a.914.914 0 0 0-.907.792l-.695 4.9a13.926 13.926 0 0 0-3.126 1.814l-4.612-1.853a.922.922 0 0 0-1.139.425l-3.686 6.407a.878.878 0 0 0 .232 1.177l3.917 3.049a11.385 11.385 0 0 0-.173 1.814 11.256 11.256 0 0 0 .135 1.814l-3.918 3.049a.947.947 0 0 0-.231 1.177l3.7 6.407a.944.944 0 0 0 1.139.424l4.612-1.852a13.646 13.646 0 0 0 3.126 1.814l.694 4.9a.95.95 0 0 0 .927.791h7.41a.9.9 0 0 0 .907-.791l.695-4.9a13.294 13.294 0 0 0 3.126-1.814l4.612 1.852a.92.92 0 0 0 1.138-.424l3.711-6.406a.893.893 0 0 0-.232-1.177zm-13.778 3.7a5.534 5.534 0 0 1-5.518-5.518 5.534 5.534 0 0 1 5.518-5.518 5.534 5.534 0 0 1 5.516 5.522 5.534 5.534 0 0 1-5.516 5.518z" transform="translate(.016 91.167)"/>
    <circle id="Ellipse_141" cx="1.038" cy="1.038" r="1.038" fill="#b4b4b4" transform="translate(28.93 40.979)"/>
</svg>
