<svg xmlns="http://www.w3.org/2000/svg" id="icon_fireware_package" width="60.075" height="60" viewBox="0 0 60.075 60">
    <defs>
        <style>
            .cls-4{fill:#fff}.cls-3,.cls-4{stroke-linecap:round;stroke-linejoin:round;stroke-miterlimit:10;stroke-width:2px}.cls-3{fill:none;stroke:#b4b4b4}.cls-4{stroke:#80bc00}
        </style>
    </defs>
    <g id="Group_2455">
        <g id="Group_2454">
            <g id="Group_2453">
                <path id="Path_1060" fill="#fff" d="M28.12 59a.8.8 0 0 1-.34-.07c-.01-.01-26.25-11.25-26.25-11.25a.877.877 0 0 1-.53-.81V13.12a.8.8 0 0 1 .04-.27c.03-.05.06-.09.09-.14.02-.03.04-.06.07-.1a.872.872 0 0 1 .3-.26.419.419 0 0 0 .14-.09l26.13-11.2a1.073 1.073 0 0 1 .35-.06.765.765 0 0 1 .3.06l29.92 11.22c.04.02.09.04.14.06a.751.751 0 0 1 .31.27.53.53 0 0 0 .06.1l.11.17s.01.12.01.23a.875.875 0 0 0 .02.16v33.62a.887.887 0 0 1-.57.82S28.49 58.93 28.47 58.94a1.223 1.223 0 0 1-.35.06z"/>
                <path id="Path_1061" fill="#b4b4b4" d="M28.12 2.01l29.82 11.18c.01.01.03.01.04.02a.772.772 0 0 0 .02.15v33.42L28.22 57.96l-.09.03c-.01 0-.01 0-.02-.01L2 46.79l-.01-33.56.01-.01a.913.913 0 0 0 .13-.08L28.12 2.01m0-2.01a1.835 1.835 0 0 0-.73.15L1.14 11.4c-.03.01-.04.04-.06.05a1.758 1.758 0 0 0-.66.55 2.426 2.426 0 0 0-.14.2 1.127 1.127 0 0 0-.12.18 1.763 1.763 0 0 0-.16.74v33.75a1.891 1.891 0 0 0 1.14 1.73l26.25 11.25a1.847 1.847 0 0 0 .74.15 1.878 1.878 0 0 0 .66-.12l.07-.03 29.93-11.22A1.875 1.875 0 0 0 60 46.87V13.12c0-.03-.03-.06-.03-.09a1.884 1.884 0 0 0-.09-.57 1.665 1.665 0 0 0-.18-.28 1.223 1.223 0 0 0-.12-.19 1.828 1.828 0 0 0-.78-.6c-.01 0-.01-.01-.03-.02L28.77.12a1.785 1.785 0 0 0-.65-.12z"/>
            </g>
        </g>
    </g>
    <path id="Path_1062" d="M1.96 13.07l26.17 12.25 30.66-11.37" class="cls-3"/>
    <path id="Line_143" d="M0 0L0 32.87" class="cls-3" transform="translate(28.13 25.32)"/>
    <path id="Path_1063" d="M46.54 18.36l-8.14 3.15-9.93-4.54 8.09-2.81z" class="cls-4"/>
    <path id="Path_1064" d="M46.54 29.26l-7.55 2.85V21.29l7.55-2.8z" class="cls-4"/>
    <path id="Line_144" fill="#fff" stroke="#b4b4b4" stroke-linecap="round" stroke-linejoin="round" stroke-miterlimit="10" stroke-width="2px" d="M0 0L10.5 4.11" transform="translate(9.04 45.56)"/>
</svg>
