<svg xmlns="http://www.w3.org/2000/svg" id="Component_149_44" width="42" height="42" viewBox="0 0 42 42">
    <defs>
        <style>
            .cls-2{fill:none}.cls-3{fill:#80bc00}
        </style>
    </defs>
    <circle id="Ellipse_1" cx="21" cy="21" r="21" fill="#ddd"/>
    <path id="Path_110" d="M0 0h37.386v37.386H0z" class="cls-2" transform="translate(2.307 2.307)"/>
    <g id="power_settings_new-24px" transform="translate(6 6)">
        <path id="Path_575" d="M0 0h30v30H0z" class="cls-2"/>
        <g id="Group_1575" transform="translate(3 4)">
            <path id="Path_642" d="M22.633 5.162a1.287 1.287 0 0 0-1.84.181 1.364 1.364 0 0 0 .177 1.887 9.7 9.7 0 0 1 3.416 7.429A9.52 9.52 0 0 1 15 24.287a9.52 9.52 0 0 1-9.387-9.628A9.717 9.717 0 0 1 8.96 7.288 1.364 1.364 0 0 0 9.12 5.4a1.284 1.284 0 0 0-1.841-.162A12.413 12.413 0 0 0 3 14.659a12.17 12.17 0 0 0 12 12.308 12.17 12.17 0 0 0 12-12.308 12.4 12.4 0 0 0-4.367-9.497z" class="cls-3" transform="translate(-3 -2.967)"/>
            <path id="Path_643" d="M12.245 16.4a1.223 1.223 0 0 0 1.225-1.22V4.188a1.225 1.225 0 0 0-2.451 0v10.988a1.223 1.223 0 0 0 1.226 1.224z" class="cls-3" transform="translate(-.245 -4.311)"/>
        </g>
    </g>
</svg>
