<svg id="Component_39" data-name="Component 39" xmlns="http://www.w3.org/2000/svg" width="24" height="24" viewBox="0 0 24 24">
  <path id="Path_128" data-name="Path 128" d="M0,0H24V24H0Z" fill="none"/>
  <path id="Path_534" data-name="Path 534" d="M19,6.5H5a4.012,4.012,0,0,0-4,4v2a4.012,4.012,0,0,0,4,4H19a4.012,4.012,0,0,0,4-4v-2A4.012,4.012,0,0,0,19,6.5ZM8.853,14H4.519V12H8.853Zm0-3H4.519V9H8.853Zm3.674,2.3a1.8,1.8,0,1,1,1.8-1.8A1.8,1.8,0,0,1,12.527,13.3ZM18,13.3a1.8,1.8,0,1,1,1.8-1.8A1.8,1.8,0,0,1,18,13.3Z" transform="translate(0 1.5)" fill="#595758"/>
</svg>
