<svg xmlns="http://www.w3.org/2000/svg" id="terminal_off" width="24" height="24" viewBox="0 0 24 24">
    <defs>
        <style>
            .cls-2{fill:#b4b4b4}
        </style>
    </defs>
    <path id="Path_87" fill="none" d="M0 0h24v24H0z"/>
    <g id="Group_1092" transform="translate(-1164 -768)">
        <path id="Path_560" d="M-.583 88.719h-16a3 3 0 0 0-3 3v10a3 3 0 0 0 3 3h16a3 3 0 0 0 3-3v-10a3 3 0 0 0-3-3zm1 13a1 1 0 0 1-1 1h-16a1 1 0 0 1-1-1v-10a1 1 0 0 1 1-1h16a1 1 0 0 1 1 1z" class="cls-2" transform="translate(1184.583 682.281)"/>
        <path id="Path_561" d="M1.417 105.719h-20a1 1 0 0 0-1 1 1 1 0 0 0 1 1h20a1 1 0 1 0 0-2z" class="cls-2" transform="translate(1184.583 682.281)"/>
        <path id="Path_562" d="M-4.083 96.875a1.961 1.961 0 0 0-.309.031c.012-.125.038-.246.038-.375a3.968 3.968 0 0 0-3.969-3.968 3.965 3.965 0 0 0-3.864 3.089 2.673 2.673 0 0 0-.271-.027 2.625 2.625 0 0 0-2.625 2.625 2.625 2.625 0 0 0 2.625 2.625h8.375a2 2 0 0 0 2-2 2 2 0 0 0-2-2z" class="cls-2" transform="translate(1184.583 682.281)"/>
    </g>
</svg>
